<svg width="1520" height="34" viewBox="0 0 1520 34" fill="none" xmlns="http://www.w3.org/2000/svg">
<g filter="url(#filter0_i_213_93)">
<path d="M68.581 26.2673C66.8068 26.2673 65.5433 25.8036 64.7906 24.8762C64.0514 23.9353 63.6818 22.5845 63.6818 20.8237V14.9366C63.6818 13.1355 64.0514 11.778 64.7906 10.864C65.5299 9.93659 66.7933 9.47288 68.581 9.47288C70.288 9.47288 71.4977 9.88283 72.21 10.7027C72.9224 11.5226 73.2786 12.6853 73.2786 14.1906V15.6019H69.7503V13.9689C69.7503 13.3371 69.6831 12.8533 69.5487 12.5172C69.4143 12.1812 69.0917 12.0132 68.581 12.0132C68.0702 12.0132 67.7342 12.1947 67.5729 12.5576C67.4116 12.907 67.331 13.3976 67.331 14.0294V21.7108C67.331 22.356 67.4116 22.8533 67.5729 23.2028C67.7476 23.5388 68.0837 23.7068 68.581 23.7068C69.0783 23.7068 69.3942 23.5388 69.5286 23.2028C69.6764 22.8533 69.7503 22.356 69.7503 21.7108V19.9971H73.2786V21.4084C73.2786 22.9407 72.9224 24.1369 72.21 24.9972C71.4977 25.8439 70.288 26.2673 68.581 26.2673ZM78.8931 26.227C77.6162 26.227 76.6215 25.891 75.9092 25.2189C75.1968 24.5334 74.8406 23.5724 74.8406 22.3359V18.0616C74.8406 16.8251 75.1968 15.8708 75.9092 15.1987C76.6215 14.5132 77.6162 14.1705 78.8931 14.1705C80.1834 14.1705 81.1511 14.4998 81.7963 15.1584C82.4415 15.817 82.7641 16.7847 82.7641 18.0616V20.4004H78.0866V22.6383C78.0866 23.4716 78.3554 23.8883 78.8931 23.8883C79.4576 23.8883 79.7398 23.5119 79.7398 22.7592V21.5294H82.7641V22.6584C82.7641 23.8278 82.4213 24.7149 81.7358 25.3197C81.0638 25.9246 80.1162 26.227 78.8931 26.227ZM79.7398 18.8681V17.6987C79.7398 17.2686 79.6592 16.9662 79.4979 16.7915C79.3501 16.6033 79.1417 16.5092 78.8729 16.5092C78.6175 16.5092 78.4226 16.61 78.2882 16.8116C78.1538 17.0132 78.0866 17.3694 78.0866 17.8802V18.8681H79.7398ZM84.5932 14.3721H87.8795V16.3076C88.2828 15.5952 88.6726 15.071 89.0489 14.735C89.4252 14.399 89.8688 14.231 90.3796 14.231C90.5677 14.231 90.7357 14.2511 90.8836 14.2915V17.5576C90.4804 17.3963 90.1242 17.3157 89.815 17.3157C89.1027 17.3157 88.4575 17.692 87.8795 18.4447V26.0254H84.5932V14.3721ZM95.8798 26.1464C95.0196 26.1464 94.3543 26.0254 93.8839 25.7835C93.4134 25.5281 93.0841 25.1652 92.8959 24.6947C92.7078 24.2243 92.6137 23.6127 92.6137 22.8601V16.5294H91.4846V14.3721H92.6137V10.8237H95.9403V14.3721H97.5936V16.5294H95.9403V22.5375C95.9403 22.8601 96.0277 23.102 96.2024 23.2633C96.3906 23.4111 96.646 23.4851 96.9685 23.4851C97.2374 23.4851 97.5331 23.4582 97.8557 23.4044V25.9851C97.2105 26.0926 96.5519 26.1464 95.8798 26.1464ZM99.3983 10.118H102.705V12.3963H99.3983V10.118ZM99.4185 14.3721H102.705V26.0254H99.4185V14.3721ZM105.097 16.5899H103.988V14.3721H105.097V13.5052C105.097 12.3896 105.325 11.5428 105.782 10.9648C106.253 10.3734 107.059 10.0777 108.202 10.0777C108.618 10.0777 109.089 10.118 109.613 10.1987V12.4366C109.425 12.4097 109.27 12.3963 109.149 12.3963C108.894 12.3963 108.699 12.4702 108.565 12.6181C108.444 12.7659 108.383 13.0213 108.383 13.3842V14.3721H113.807V26.0254H110.561V16.5899H108.383V26.0254H105.097V16.5899ZM110.762 10.118H113.807V12.3963H110.762V10.118ZM119.629 26.227C118.365 26.227 117.378 25.8843 116.665 25.1988C115.953 24.5133 115.597 23.559 115.597 22.3359V18.0616C115.597 16.8251 115.946 15.8708 116.645 15.1987C117.357 14.5132 118.352 14.1705 119.629 14.1705C120.892 14.1705 121.86 14.4662 122.532 15.0576C123.218 15.649 123.56 16.5226 123.56 17.6786V18.9084H120.395V17.5778C120.395 17.1342 120.328 16.8318 120.193 16.6705C120.072 16.4958 119.884 16.4084 119.629 16.4084C119.373 16.4084 119.185 16.5159 119.064 16.731C118.957 16.9326 118.903 17.2821 118.903 17.7794V22.6181C118.903 23.1154 118.964 23.4649 119.085 23.6665C119.205 23.8681 119.394 23.9689 119.649 23.9689C119.904 23.9689 120.093 23.8816 120.214 23.7068C120.335 23.5321 120.395 23.2364 120.395 22.8197V21.2673H123.56V22.6786C123.56 23.8345 123.218 24.7149 122.532 25.3197C121.847 25.9246 120.879 26.227 119.629 26.227ZM127.669 26.227C127.104 26.227 126.614 26.0926 126.197 25.8238C125.794 25.5415 125.485 25.1853 125.269 24.7552C125.068 24.3117 124.967 23.8547 124.967 23.3842C124.967 22.4837 125.196 21.7445 125.653 21.1665C126.11 20.5885 126.654 20.1383 127.286 19.8157C127.931 19.4931 128.757 19.1571 129.765 18.8076V17.6382C129.765 17.3022 129.712 17.0468 129.604 16.8721C129.51 16.6974 129.335 16.61 129.08 16.61C128.825 16.61 128.643 16.6907 128.536 16.852C128.428 17.0132 128.368 17.2417 128.354 17.5374L128.274 18.3842L125.209 18.2632C125.263 16.8654 125.632 15.8372 126.318 15.1786C127.003 14.5065 128.025 14.1705 129.382 14.1705C130.525 14.1705 131.399 14.4931 132.003 15.1382C132.608 15.77 132.911 16.6167 132.911 17.6786V23.1221C132.911 24.305 132.978 25.2727 133.112 26.0254H130.169C130.048 25.1248 129.96 24.5738 129.907 24.3722C129.745 24.9098 129.477 25.3533 129.1 25.7028C128.724 26.0523 128.247 26.227 127.669 26.227ZM128.838 24.0093C129.174 24.0093 129.483 23.8144 129.765 23.4246V20.2391C129.161 20.5885 128.704 20.9582 128.395 21.3479C128.085 21.7243 127.931 22.188 127.931 22.7391C127.931 23.1289 128.011 23.438 128.173 23.6665C128.334 23.895 128.556 24.0093 128.838 24.0093ZM138.427 26.1464C137.567 26.1464 136.902 26.0254 136.432 25.7835C135.961 25.5281 135.632 25.1652 135.444 24.6947C135.255 24.2243 135.161 23.6127 135.161 22.8601V16.5294H134.032V14.3721H135.161V10.8237H138.488V14.3721H140.141V16.5294H138.488V22.5375C138.488 22.8601 138.575 23.102 138.75 23.2633C138.938 23.4111 139.194 23.4851 139.516 23.4851C139.785 23.4851 140.081 23.4582 140.403 23.4044V25.9851C139.758 26.0926 139.1 26.1464 138.427 26.1464ZM141.946 10.118H145.252V12.3963H141.946V10.118ZM141.966 14.3721H145.252V26.0254H141.966V14.3721ZM151.112 26.227C149.835 26.227 148.834 25.9044 148.108 25.2593C147.396 24.6141 147.04 23.6665 147.04 22.4165V17.981C147.04 16.731 147.396 15.7834 148.108 15.1382C148.834 14.4931 149.835 14.1705 151.112 14.1705C152.389 14.1705 153.391 14.4998 154.116 15.1584C154.842 15.8036 155.205 16.7444 155.205 17.981V22.4165C155.205 23.6531 154.842 24.6007 154.116 25.2593C153.391 25.9044 152.389 26.227 151.112 26.227ZM151.132 24.0496C151.442 24.0496 151.657 23.9353 151.778 23.7068C151.899 23.4649 151.959 23.1087 151.959 22.6383V17.7592C151.959 17.2888 151.899 16.9393 151.778 16.7108C151.657 16.4689 151.442 16.3479 151.132 16.3479C150.823 16.3479 150.602 16.4689 150.467 16.7108C150.346 16.9528 150.286 17.3022 150.286 17.7592V22.6383C150.286 23.1087 150.346 23.4649 150.467 23.7068C150.602 23.9353 150.823 24.0496 151.132 24.0496ZM157.028 14.3721H160.314V15.5415C161.228 14.6275 162.162 14.1705 163.116 14.1705C163.815 14.1705 164.346 14.4259 164.709 14.9366C165.085 15.4339 165.274 16.0858 165.274 16.8923V26.0254H162.008V17.356C162.008 17.0603 161.954 16.8452 161.846 16.7108C161.752 16.563 161.584 16.489 161.342 16.489C161.073 16.489 160.731 16.6302 160.314 16.9124V26.0254H157.028V14.3721Z" fill="#4478C0"/>
</g>
<circle cx="51.4226" cy="18.2009" r="5.08606" stroke="#4478C0" stroke-width="1.72184"/>
<circle cx="51.4226" cy="18.2009" r="5.08606" stroke="#4478C0" stroke-width="1.72184"/>
<g filter="url(#filter1_i_213_93)">
<path d="M205.155 26.1876C203.587 26.1876 202.418 25.7754 201.648 24.951C200.891 24.1131 200.486 22.7887 200.431 20.9778L203.533 20.5116C203.547 21.5522 203.668 22.3022 203.898 22.7617C204.141 23.2077 204.499 23.4307 204.972 23.4307C205.58 23.4307 205.885 23.032 205.885 22.2346C205.885 21.5995 205.736 21.0521 205.439 20.5926C205.155 20.1332 204.702 19.6399 204.08 19.1128L202.661 17.8762C201.959 17.2816 201.411 16.6532 201.019 15.991C200.641 15.3153 200.452 14.5179 200.452 13.5989C200.452 12.2205 200.857 11.1596 201.668 10.4163C202.492 9.67302 203.621 9.30137 205.053 9.30137C206.608 9.30137 207.662 9.7541 208.216 10.6596C208.783 11.565 209.087 12.6665 209.128 13.9638L206.006 14.349C205.979 13.4976 205.898 12.8894 205.763 12.5246C205.641 12.1462 205.364 11.9569 204.932 11.9569C204.621 11.9569 204.378 12.0921 204.202 12.3624C204.04 12.6192 203.959 12.9097 203.959 13.2341C203.959 13.7881 204.08 14.2544 204.324 14.6328C204.58 15.0112 204.986 15.4437 205.54 15.9302L206.898 17.1262C207.709 17.8154 208.337 18.5452 208.783 19.3155C209.229 20.0859 209.452 20.9981 209.452 22.0522C209.452 22.8225 209.27 23.5253 208.905 24.1604C208.554 24.7821 208.054 25.2754 207.405 25.6403C206.756 26.0052 206.006 26.1876 205.155 26.1876ZM214.878 26.1471C213.595 26.1471 212.588 25.8227 211.858 25.174C211.142 24.5253 210.784 23.5726 210.784 22.3157V17.856C210.784 16.5991 211.142 15.6464 211.858 14.9977C212.588 14.349 213.595 14.0247 214.878 14.0247C216.162 14.0247 217.169 14.3558 217.899 15.018C218.629 15.6666 218.994 16.6127 218.994 17.856V22.3157C218.994 23.559 218.629 24.5118 217.899 25.174C217.169 25.8227 216.162 26.1471 214.878 26.1471ZM214.899 23.9577C215.21 23.9577 215.426 23.8428 215.547 23.6131C215.669 23.3698 215.73 23.0117 215.73 22.5387V17.633C215.73 17.16 215.669 16.8086 215.547 16.5789C215.426 16.3356 215.21 16.214 214.899 16.214C214.588 16.214 214.365 16.3356 214.23 16.5789C214.108 16.8221 214.047 17.1735 214.047 17.633V22.5387C214.047 23.0117 214.108 23.3698 214.23 23.6131C214.365 23.8428 214.588 23.9577 214.899 23.9577ZM224.637 26.1471C223.367 26.1471 222.374 25.8024 221.657 25.1132C220.941 24.424 220.583 23.4644 220.583 22.2346V17.9371C220.583 16.6937 220.934 15.7342 221.637 15.0585C222.353 14.3693 223.353 14.0247 224.637 14.0247C225.908 14.0247 226.881 14.322 227.556 14.9166C228.246 15.5112 228.59 16.3897 228.59 17.5519V18.7885H225.407V17.4505C225.407 17.0046 225.34 16.7005 225.205 16.5383C225.083 16.3626 224.894 16.2748 224.637 16.2748C224.38 16.2748 224.191 16.3829 224.07 16.5991C223.961 16.8019 223.907 17.1532 223.907 17.6533V22.5184C223.907 23.0185 223.968 23.3698 224.09 23.5726C224.211 23.7753 224.401 23.8766 224.657 23.8766C224.914 23.8766 225.103 23.7888 225.225 23.6131C225.347 23.4374 225.407 23.1401 225.407 22.7212V21.1602H228.59V22.5793C228.59 23.7415 228.246 24.6267 227.556 25.2348C226.867 25.843 225.894 26.1471 224.637 26.1471ZM230.309 9.95006H233.633V12.2408H230.309V9.95006ZM230.329 14.2274H233.633V25.9443H230.329V14.2274ZM238.086 26.1471C237.518 26.1471 237.025 26.0119 236.606 25.7416C236.201 25.4578 235.89 25.0997 235.673 24.6672C235.471 24.2213 235.369 23.7618 235.369 23.2888C235.369 22.3833 235.599 21.64 236.059 21.0589C236.518 20.4778 237.065 20.025 237.701 19.7007C238.349 19.3763 239.18 19.0385 240.194 18.6871V17.5114C240.194 17.1735 240.14 16.9167 240.032 16.741C239.937 16.5654 239.762 16.4775 239.505 16.4775C239.248 16.4775 239.066 16.5586 238.957 16.7208C238.849 16.8829 238.789 17.1127 238.775 17.41L238.694 18.2614L235.613 18.1398C235.667 16.7343 236.038 15.7004 236.728 15.0382C237.417 14.3625 238.444 14.0247 239.809 14.0247C240.958 14.0247 241.836 14.349 242.444 14.9977C243.052 15.6329 243.356 16.4843 243.356 17.5519V23.0252C243.356 24.2145 243.424 25.1875 243.559 25.9443H240.599C240.478 25.0389 240.39 24.4848 240.336 24.2821C240.174 24.8226 239.903 25.2686 239.525 25.62C239.147 25.9714 238.667 26.1471 238.086 26.1471ZM239.262 23.9172C239.599 23.9172 239.91 23.7212 240.194 23.3293V20.1264C239.586 20.4778 239.126 20.8494 238.816 21.2413C238.505 21.6197 238.349 22.086 238.349 22.6401C238.349 23.032 238.43 23.3428 238.593 23.5726C238.755 23.8023 238.978 23.9172 239.262 23.9172ZM245.456 9.52436H248.74V25.9443H245.456V9.52436ZM260.949 26.1876C259.165 26.1876 257.895 25.7213 257.138 24.7889C256.395 23.8428 256.023 22.4847 256.023 20.7143V14.795C256.023 12.984 256.395 11.6191 257.138 10.7001C257.881 9.76762 259.152 9.30137 260.949 9.30137C262.666 9.30137 263.882 9.71356 264.598 10.5379C265.314 11.3623 265.673 12.5313 265.673 14.0449V15.4639H262.125V13.8219C262.125 13.1868 262.057 12.7002 261.922 12.3624C261.787 12.0245 261.463 11.8556 260.949 11.8556C260.436 11.8556 260.098 12.038 259.936 12.4029C259.774 12.7543 259.692 13.2476 259.692 13.8827V21.6062C259.692 22.2549 259.774 22.7549 259.936 23.1063C260.111 23.4442 260.449 23.6131 260.949 23.6131C261.449 23.6131 261.767 23.4442 261.902 23.1063C262.051 22.7549 262.125 22.2549 262.125 21.6062V19.8831H265.673V21.3021C265.673 22.8428 265.314 24.0456 264.598 24.9105C263.882 25.7619 262.666 26.1876 260.949 26.1876ZM271.338 26.1471C270.054 26.1471 269.047 25.8227 268.317 25.174C267.601 24.5253 267.243 23.5726 267.243 22.3157V17.856C267.243 16.5991 267.601 15.6464 268.317 14.9977C269.047 14.349 270.054 14.0247 271.338 14.0247C272.622 14.0247 273.629 14.3558 274.358 15.018C275.088 15.6666 275.453 16.6127 275.453 17.856V22.3157C275.453 23.559 275.088 24.5118 274.358 25.174C273.629 25.8227 272.622 26.1471 271.338 26.1471ZM271.358 23.9577C271.669 23.9577 271.885 23.8428 272.007 23.6131C272.129 23.3698 272.189 23.0117 272.189 22.5387V17.633C272.189 17.16 272.129 16.8086 272.007 16.5789C271.885 16.3356 271.669 16.214 271.358 16.214C271.047 16.214 270.824 16.3356 270.689 16.5789C270.568 16.8221 270.507 17.1735 270.507 17.633V22.5387C270.507 23.0117 270.568 23.3698 270.689 23.6131C270.824 23.8428 271.047 23.9577 271.358 23.9577ZM277.286 14.2274H280.59V15.4031C281.509 14.4841 282.448 14.0247 283.408 14.0247C284.11 14.0247 284.644 14.2814 285.009 14.795C285.387 15.295 285.577 15.9504 285.577 16.7613V25.9443H282.293V17.2276C282.293 16.9302 282.239 16.714 282.131 16.5789C282.036 16.4302 281.867 16.3559 281.624 16.3559C281.353 16.3559 281.009 16.4978 280.59 16.7816V25.9443H277.286V14.2274ZM287.56 14.2274H290.864V15.4031C291.783 14.4841 292.722 14.0247 293.682 14.0247C294.385 14.0247 294.919 14.2814 295.283 14.795C295.662 15.295 295.851 15.9504 295.851 16.7613V25.9443H292.567V17.2276C292.567 16.9302 292.513 16.714 292.405 16.5789C292.31 16.4302 292.141 16.3559 291.898 16.3559C291.628 16.3559 291.283 16.4978 290.864 16.7816V25.9443H287.56V14.2274ZM301.666 26.1471C300.382 26.1471 299.382 25.8092 298.665 25.1335C297.949 24.4442 297.591 23.478 297.591 22.2346V17.9371C297.591 16.6937 297.949 15.7342 298.665 15.0585C299.382 14.3693 300.382 14.0247 301.666 14.0247C302.963 14.0247 303.936 14.3558 304.585 15.018C305.233 15.6802 305.558 16.6532 305.558 17.9371V20.2886H300.855V22.5387C300.855 23.3766 301.125 23.7955 301.666 23.7955C302.233 23.7955 302.517 23.4171 302.517 22.6603V21.4238H305.558V22.559C305.558 23.7347 305.213 24.6267 304.524 25.2348C303.848 25.843 302.895 26.1471 301.666 26.1471ZM302.517 18.7479V17.5722C302.517 17.1397 302.436 16.8356 302.274 16.66C302.125 16.4708 301.916 16.3762 301.645 16.3762C301.389 16.3762 301.193 16.4775 301.058 16.6802C300.922 16.8829 300.855 17.2411 300.855 17.7546V18.7479H302.517ZM311.167 26.1471C309.897 26.1471 308.904 25.8024 308.188 25.1132C307.471 24.424 307.113 23.4644 307.113 22.2346V17.9371C307.113 16.6937 307.465 15.7342 308.167 15.0585C308.884 14.3693 309.884 14.0247 311.167 14.0247C312.438 14.0247 313.411 14.322 314.087 14.9166C314.776 15.5112 315.12 16.3897 315.12 17.5519V18.7885H311.938V17.4505C311.938 17.0046 311.87 16.7005 311.735 16.5383C311.613 16.3626 311.424 16.2748 311.167 16.2748C310.911 16.2748 310.722 16.3829 310.6 16.5991C310.492 16.8019 310.438 17.1532 310.438 17.6533V22.5184C310.438 23.0185 310.499 23.3698 310.62 23.5726C310.742 23.7753 310.931 23.8766 311.188 23.8766C311.445 23.8766 311.634 23.7888 311.755 23.6131C311.877 23.4374 311.938 23.1401 311.938 22.7212V21.1602H315.12V22.5793C315.12 23.7415 314.776 24.6267 314.087 25.2348C313.397 25.843 312.424 26.1471 311.167 26.1471ZM320.468 26.066C319.603 26.066 318.934 25.9443 318.461 25.7011C317.988 25.4443 317.657 25.0794 317.467 24.6064C317.278 24.1334 317.184 23.5185 317.184 22.7617V16.3964H316.048V14.2274H317.184V10.6596H320.528V14.2274H322.191V16.3964H320.528V22.4374C320.528 22.7617 320.616 23.005 320.792 23.1671C320.981 23.3158 321.238 23.3901 321.562 23.3901C321.833 23.3901 322.13 23.3631 322.454 23.309V25.9038C321.805 26.0119 321.143 26.066 320.468 26.066ZM324.005 9.95006H327.33V12.2408H324.005V9.95006ZM324.026 14.2274H327.33V25.9443H324.026V14.2274ZM328.539 14.2274H331.701L332.674 21.7076L333.566 14.2274H336.729L334.316 25.9443H330.89L328.539 14.2274ZM337.902 9.95006H341.227V12.2408H337.902V9.95006ZM337.923 14.2274H341.227V25.9443H337.923V14.2274ZM346.896 26.066C346.031 26.066 345.362 25.9443 344.889 25.7011C344.416 25.4443 344.085 25.0794 343.896 24.6064C343.706 24.1334 343.612 23.5185 343.612 22.7617V16.3964H342.477V14.2274H343.612V10.6596H346.957V14.2274H348.619V16.3964H346.957V22.4374C346.957 22.7617 347.044 23.005 347.22 23.1671C347.409 23.3158 347.666 23.3901 347.99 23.3901C348.261 23.3901 348.558 23.3631 348.882 23.309V25.9038C348.234 26.0119 347.572 26.066 346.896 26.066ZM350.758 27.0593C351.407 27.0593 351.88 26.9849 352.177 26.8363C352.488 26.7011 352.643 26.4444 352.643 26.066C352.643 25.7281 352.501 25.0727 352.217 24.0996L349.46 14.2274H352.562L354.042 20.9981L355.157 14.2274H358.279L355.583 26.2281C355.326 27.3769 354.859 28.181 354.184 28.6405C353.508 29.1135 352.616 29.35 351.508 29.35H350.758V27.0593Z" fill="#4478C0"/>
</g>
<circle cx="188.46" cy="18.1198" r="5.08606" stroke="#4478C0" stroke-width="1.72184"/>
<circle cx="188.46" cy="18.1198" r="5.08606" stroke="#4478C0" stroke-width="1.72184"/>
<g filter="url(#filter2_i_213_93)">
<path d="M403.32 26.1393C402.036 26.1393 401.035 25.8013 400.319 25.1253C399.602 24.4357 399.244 23.4689 399.244 22.225V17.9252C399.244 16.6813 399.602 15.7213 400.319 15.0452C401.035 14.3557 402.036 14.0109 403.32 14.0109C404.618 14.0109 405.592 14.3421 406.241 15.0047C406.89 15.6672 407.214 16.6407 407.214 17.9252V20.2779H402.509V22.5292C402.509 23.3675 402.779 23.7867 403.32 23.7867C403.888 23.7867 404.172 23.4081 404.172 22.6509V21.4137H407.214V22.5495C407.214 23.7258 406.87 24.6182 406.18 25.2267C405.504 25.8351 404.551 26.1393 403.32 26.1393ZM404.172 18.7365V17.5602C404.172 17.1275 404.091 16.8233 403.929 16.6475C403.78 16.4582 403.57 16.3636 403.3 16.3636C403.043 16.3636 402.847 16.465 402.712 16.6678C402.577 16.8706 402.509 17.2289 402.509 17.7427V18.7365H404.172ZM409.278 17.763H414.53V19.8723H409.278V17.763ZM417.02 9.50834H420.65V23.4824H424.423V25.9365H417.02V9.50834ZM425.829 9.93426H429.156V12.2261H425.829V9.93426ZM425.85 14.2137H429.156V25.9365H425.85V14.2137ZM437.018 26.1393C436.18 26.1393 435.341 25.7743 434.503 25.0441V25.9365H431.197V9.50834H434.503V15.0655C434.895 14.714 435.314 14.4503 435.76 14.2745C436.207 14.0988 436.639 14.0109 437.058 14.0109C437.91 14.0109 438.539 14.3286 438.945 14.9641C439.364 15.5996 439.573 16.4312 439.573 17.4588V22.5089C439.573 23.6312 439.35 24.5168 438.904 25.1658C438.458 25.8148 437.829 26.1393 437.018 26.1393ZM435.416 24.0098C435.713 24.0098 435.929 23.8881 436.065 23.6447C436.2 23.4013 436.267 23.0836 436.267 22.6915V17.2154C436.267 16.8503 436.2 16.5596 436.065 16.3433C435.943 16.1134 435.74 15.9985 435.456 15.9985C435.145 15.9985 434.827 16.1269 434.503 16.3838V23.6853C434.8 23.9016 435.105 24.0098 435.416 24.0098ZM441.497 14.2137H444.803V16.1607C445.209 15.4441 445.601 14.9168 445.979 14.5788C446.358 14.2407 446.804 14.0717 447.318 14.0717C447.507 14.0717 447.676 14.092 447.825 14.1326V17.4182C447.419 17.256 447.061 17.1748 446.75 17.1748C446.034 17.1748 445.385 17.5534 444.803 18.3106V25.9365H441.497V14.2137ZM451.575 26.1393C451.007 26.1393 450.513 26.0041 450.094 25.7337C449.689 25.4498 449.378 25.0915 449.161 24.6588C448.959 24.2126 448.857 23.7529 448.857 23.2796C448.857 22.3737 449.087 21.63 449.547 21.0486C450.006 20.4672 450.554 20.0143 451.19 19.6898C451.839 19.3653 452.67 19.0272 453.684 18.6757V17.4993C453.684 17.1613 453.63 16.9044 453.522 16.7286C453.427 16.5529 453.251 16.465 452.995 16.465C452.738 16.465 452.555 16.5461 452.447 16.7083C452.339 16.8706 452.278 17.1005 452.264 17.3979L452.183 18.2498L449.1 18.1281C449.155 16.7219 449.526 15.6875 450.216 15.025C450.906 14.3489 451.933 14.0109 453.299 14.0109C454.448 14.0109 455.327 14.3354 455.935 14.9844C456.544 15.6199 456.848 16.4717 456.848 17.5399V23.016C456.848 24.2058 456.916 25.1793 457.051 25.9365H454.09C453.968 25.0306 453.88 24.4762 453.826 24.2734C453.664 24.8143 453.393 25.2605 453.015 25.612C452.636 25.9636 452.156 26.1393 451.575 26.1393ZM452.751 23.9084C453.089 23.9084 453.4 23.7123 453.684 23.3202V20.1157C453.076 20.4672 452.616 20.8391 452.305 21.2312C451.994 21.6098 451.839 22.0762 451.839 22.6306C451.839 23.0227 451.92 23.3337 452.082 23.5636C452.244 23.7934 452.467 23.9084 452.751 23.9084ZM458.848 14.2137H462.154V16.1607C462.559 15.4441 462.951 14.9168 463.33 14.5788C463.708 14.2407 464.155 14.0717 464.668 14.0717C464.858 14.0717 465.027 14.092 465.175 14.1326V17.4182C464.77 17.256 464.412 17.1748 464.101 17.1748C463.384 17.1748 462.735 17.5534 462.154 18.3106V25.9365H458.848V14.2137ZM466.896 27.052C467.545 27.052 468.018 26.9777 468.315 26.8289C468.626 26.6937 468.782 26.4368 468.782 26.0582C468.782 25.7202 468.64 25.0644 468.356 24.0909L465.598 14.2137H468.701L470.181 20.9878L471.297 14.2137H474.42L471.723 26.2205C471.466 27.3698 470.999 28.1743 470.323 28.634C469.647 29.1072 468.755 29.3439 467.646 29.3439H466.896V27.052Z" fill="#4478C0"/>
</g>
<circle cx="386.132" cy="18.112" r="5.08606" stroke="#4478C0" stroke-width="1.72184"/>
<circle cx="386.132" cy="18.112" r="5.08606" stroke="#4478C0" stroke-width="1.72184"/>
<g filter="url(#filter3_i_213_93)">
<path d="M520.711 26.9042C518.892 26.9042 517.597 26.429 516.826 25.4785C516.068 24.5142 515.689 23.1298 515.689 21.3252V15.2916C515.689 13.4457 516.068 12.0544 516.826 11.1177C517.584 10.1672 518.878 9.69196 520.711 9.69196C522.46 9.69196 523.7 10.1121 524.43 10.9524C525.16 11.7927 525.525 12.9843 525.525 14.5271V15.9735H521.909V14.2998C521.909 13.6524 521.84 13.1564 521.702 12.8121C521.565 12.4677 521.234 12.2955 520.711 12.2955C520.187 12.2955 519.843 12.4815 519.677 12.8534C519.512 13.2115 519.429 13.7143 519.429 14.3618V22.2344C519.429 22.8956 519.512 23.4053 519.677 23.7634C519.857 24.1078 520.201 24.28 520.711 24.28C521.22 24.28 521.544 24.1078 521.682 23.7634C521.833 23.4053 521.909 22.8956 521.909 22.2344V20.478H525.525V21.9244C525.525 23.4948 525.16 24.7208 524.43 25.6024C523.7 26.4703 522.46 26.9042 520.711 26.9042ZM531.3 26.8629C529.991 26.8629 528.965 26.5323 528.221 25.8711C527.491 25.2098 527.126 24.2387 527.126 22.9576V18.4117C527.126 17.1306 527.491 16.1595 528.221 15.4982C528.965 14.837 529.991 14.5064 531.3 14.5064C532.609 14.5064 533.635 14.8439 534.379 15.5189C535.123 16.1801 535.494 17.1444 535.494 18.4117V22.9576C535.494 24.2249 535.123 25.1961 534.379 25.8711C533.635 26.5323 532.609 26.8629 531.3 26.8629ZM531.321 24.6313C531.637 24.6313 531.858 24.5142 531.982 24.28C532.106 24.0321 532.168 23.667 532.168 23.1849V18.1844C532.168 17.7023 532.106 17.3441 531.982 17.11C531.858 16.862 531.637 16.738 531.321 16.738C531.004 16.738 530.776 16.862 530.639 17.11C530.515 17.3579 530.453 17.7161 530.453 18.1844V23.1849C530.453 23.667 530.515 24.0321 530.639 24.28C530.776 24.5142 531.004 24.6313 531.321 24.6313ZM539.47 26.8629C538.754 26.8629 538.203 26.608 537.817 26.0983C537.431 25.5749 537.238 24.8999 537.238 24.0734V14.7131H540.606V23.6808C540.606 23.9838 540.662 24.2111 540.772 24.3627C540.882 24.5142 541.061 24.59 541.309 24.59C541.529 24.59 541.86 24.466 542.301 24.218V14.7131H545.648V26.6562H542.301V25.5611C541.364 26.429 540.42 26.8629 539.47 26.8629ZM547.816 14.7131H551.184V16.6967C551.597 15.9666 551.997 15.4294 552.382 15.085C552.768 14.7406 553.223 14.5684 553.746 14.5684C553.939 14.5684 554.111 14.5891 554.263 14.6304V17.9778C553.849 17.8125 553.484 17.7298 553.168 17.7298C552.437 17.7298 551.776 18.1156 551.184 18.887V26.6562H547.816V14.7131ZM559.363 26.8629C558.302 26.8629 557.42 26.6287 556.718 26.1603C556.029 25.6782 555.471 24.9137 555.044 23.8667L557.338 22.8543C557.558 23.4053 557.813 23.8323 558.102 24.1354C558.405 24.4384 558.736 24.59 559.094 24.59C559.617 24.59 559.879 24.3833 559.879 23.9701C559.879 23.667 559.776 23.3984 559.569 23.1642C559.363 22.9163 558.915 22.5099 558.226 21.9451L557.358 21.2219C556.642 20.6158 556.119 20.0648 555.788 19.5689C555.471 19.0729 555.313 18.4806 555.313 17.7918C555.313 17.1582 555.478 16.5934 555.809 16.0975C556.153 15.6016 556.608 15.2159 557.172 14.9403C557.737 14.6511 558.343 14.5064 558.991 14.5064C559.969 14.5064 560.781 14.775 561.429 15.3123C562.09 15.8357 562.558 16.5934 562.834 17.5852L560.664 18.577C560.527 18.1362 560.313 17.7436 560.024 17.3992C559.735 17.0411 559.418 16.862 559.073 16.862C558.853 16.862 558.674 16.924 558.536 17.048C558.412 17.1719 558.35 17.3373 558.35 17.5439C558.35 17.7918 558.481 18.0605 558.743 18.3497C559.018 18.639 559.445 19.0178 560.024 19.4862L560.871 20.2301C561.56 20.8086 562.09 21.3528 562.462 21.8624C562.834 22.3584 563.02 22.9438 563.02 23.6188C563.02 24.2938 562.848 24.8792 562.503 25.3751C562.173 25.8573 561.725 26.2292 561.16 26.4909C560.609 26.7389 560.01 26.8629 559.363 26.8629ZM568.347 26.8629C567.039 26.8629 566.019 26.5185 565.289 25.8297C564.559 25.1272 564.194 24.1423 564.194 22.8749V18.4944C564.194 17.2271 564.559 16.249 565.289 15.5602C566.019 14.8577 567.039 14.5064 568.347 14.5064C569.67 14.5064 570.662 14.8439 571.323 15.5189C571.984 16.1939 572.315 17.1857 572.315 18.4944V20.8913H567.521V23.1849C567.521 24.0389 567.796 24.466 568.347 24.466C568.926 24.466 569.215 24.0803 569.215 23.3088V22.0484H572.315V23.2055C572.315 24.404 571.963 25.3132 571.261 25.933C570.572 26.5529 569.601 26.8629 568.347 26.8629ZM569.215 19.3209V18.1224C569.215 17.6816 569.133 17.3717 568.967 17.1926C568.816 16.9998 568.602 16.9033 568.327 16.9033C568.065 16.9033 567.865 17.0066 567.728 17.2133C567.59 17.4199 567.521 17.785 567.521 18.3084V19.3209H569.215ZM579.848 9.91925H583.815L585.654 19.6515L587.638 9.91925H591.461L591.75 26.6562H589.126L588.816 15.5189L586.874 26.6562H584.539L582.472 15.4363L582.224 26.6562H579.559L579.848 9.91925ZM596.443 26.8629C595.864 26.8629 595.361 26.7251 594.934 26.4496C594.521 26.1603 594.204 25.7953 593.984 25.3545C593.777 24.8999 593.674 24.4315 593.674 23.9494C593.674 23.0265 593.908 22.2688 594.376 21.6765C594.845 21.0841 595.403 20.6227 596.05 20.2921C596.711 19.9614 597.558 19.6171 598.592 19.2589V18.0605C598.592 17.7161 598.536 17.4543 598.426 17.2753C598.33 17.0962 598.151 17.0066 597.889 17.0066C597.627 17.0066 597.441 17.0893 597.331 17.2546C597.221 17.4199 597.159 17.6541 597.145 17.9571L597.063 18.825L593.922 18.701C593.977 17.2684 594.356 16.2146 595.058 15.5396C595.761 14.8508 596.808 14.5064 598.199 14.5064C599.37 14.5064 600.265 14.837 600.885 15.4982C601.505 16.1457 601.815 17.0135 601.815 18.1018V23.6808C601.815 24.893 601.884 25.8848 602.022 26.6562H599.005C598.881 25.7333 598.791 25.1685 598.736 24.9619C598.571 25.5129 598.295 25.9675 597.91 26.3256C597.524 26.6838 597.035 26.8629 596.443 26.8629ZM597.641 24.59C597.985 24.59 598.302 24.3902 598.592 23.9907V20.726C597.972 21.0841 597.503 21.463 597.186 21.8624C596.87 22.2482 596.711 22.7234 596.711 23.2882C596.711 23.6877 596.794 24.0045 596.959 24.2387C597.124 24.4729 597.352 24.59 597.641 24.59ZM603.811 14.7131H607.179V15.9115C608.116 14.9748 609.073 14.5064 610.051 14.5064C610.767 14.5064 611.311 14.7682 611.683 15.2916C612.069 15.8013 612.262 16.4694 612.262 17.2959V26.6562H608.914V17.7712C608.914 17.4681 608.859 17.2477 608.749 17.11C608.653 16.9584 608.481 16.8827 608.233 16.8827C607.957 16.8827 607.606 17.0273 607.179 17.3166V26.6562H603.811V14.7131ZM616.742 26.8629C616.164 26.8629 615.661 26.7251 615.234 26.4496C614.821 26.1603 614.504 25.7953 614.283 25.3545C614.077 24.8999 613.974 24.4315 613.974 23.9494C613.974 23.0265 614.208 22.2688 614.676 21.6765C615.144 21.0841 615.702 20.6227 616.35 20.2921C617.011 19.9614 617.858 19.6171 618.891 19.2589V18.0605C618.891 17.7161 618.836 17.4543 618.726 17.2753C618.63 17.0962 618.45 17.0066 618.189 17.0066C617.927 17.0066 617.741 17.0893 617.631 17.2546C617.521 17.4199 617.459 17.6541 617.445 17.9571L617.362 18.825L614.221 18.701C614.277 17.2684 614.655 16.2146 615.358 15.5396C616.06 14.8508 617.107 14.5064 618.499 14.5064C619.67 14.5064 620.565 14.837 621.185 15.4982C621.805 16.1457 622.115 17.0135 622.115 18.1018V23.6808C622.115 24.893 622.184 25.8848 622.321 26.6562H619.305C619.181 25.7333 619.091 25.1685 619.036 24.9619C618.871 25.5129 618.595 25.9675 618.209 26.3256C617.824 26.6838 617.335 26.8629 616.742 26.8629ZM617.941 24.59C618.285 24.59 618.602 24.3902 618.891 23.9907V20.726C618.271 21.0841 617.803 21.463 617.486 21.8624C617.169 22.2482 617.011 22.7234 617.011 23.2882C617.011 23.6877 617.094 24.0045 617.259 24.2387C617.424 24.4729 617.652 24.59 617.941 24.59ZM627.995 30.7888C626.618 30.7888 625.536 30.5822 624.751 30.169C623.966 29.7695 623.573 29.1634 623.573 28.3506C623.573 27.3312 624.193 26.5392 625.433 25.9744C624.331 25.6713 623.78 25.0377 623.78 24.0734C623.78 23.6188 623.883 23.2193 624.09 22.8749C624.31 22.5305 624.648 22.1586 625.102 21.7591C624.317 21.0566 623.925 20.0234 623.925 18.6597C623.925 17.3235 624.29 16.2972 625.02 15.5809C625.764 14.8646 626.824 14.5064 628.202 14.5064C629.428 14.5064 630.371 14.8164 631.033 15.4363C631.349 14.9266 631.832 14.5133 632.479 14.1965L632.913 13.9899L633.698 15.6016C633.505 15.6704 633.209 15.7944 632.81 15.9735C632.424 16.1388 632.1 16.2972 631.838 16.4487C632.155 17.11 632.314 17.8538 632.314 18.6803C632.314 19.989 631.962 21.0015 631.26 21.7178C630.571 22.4341 629.552 22.7923 628.202 22.7923C627.458 22.7923 626.776 22.6821 626.156 22.4617C625.949 22.7509 625.846 22.992 625.846 23.1849C625.846 23.3502 625.929 23.481 626.094 23.5775C626.273 23.6739 626.569 23.7497 626.983 23.8048L630.123 24.156C631.129 24.2662 631.873 24.59 632.355 25.1272C632.851 25.6644 633.099 26.3807 633.099 27.2761C633.099 28.447 632.693 29.3218 631.88 29.9003C631.081 30.4927 629.786 30.7888 627.995 30.7888ZM628.202 20.788C628.574 20.788 628.822 20.6364 628.946 20.3334C629.07 20.0303 629.132 19.4724 629.132 18.6597C629.132 17.8469 629.07 17.289 628.946 16.986C628.822 16.6692 628.574 16.5107 628.202 16.5107C627.83 16.5107 627.582 16.6623 627.458 16.9653C627.334 17.2684 627.272 17.8332 627.272 18.6597C627.272 19.4587 627.334 20.0166 627.458 20.3334C627.582 20.6364 627.83 20.788 628.202 20.788ZM628.429 28.3506C629.242 28.3506 629.834 28.2817 630.206 28.144C630.592 28.0062 630.785 27.7583 630.785 27.4001C630.785 27.1108 630.654 26.8973 630.392 26.7596C630.144 26.6356 629.676 26.5392 628.987 26.4703L626.776 26.243C626.308 26.6011 626.073 26.9731 626.073 27.3588C626.073 27.7032 626.253 27.9511 626.611 28.1027C626.983 28.268 627.589 28.3506 628.429 28.3506ZM638.347 26.8629C637.039 26.8629 636.019 26.5185 635.289 25.8297C634.559 25.1272 634.194 24.1423 634.194 22.8749V18.4944C634.194 17.2271 634.559 16.249 635.289 15.5602C636.019 14.8577 637.039 14.5064 638.347 14.5064C639.67 14.5064 640.662 14.8439 641.323 15.5189C641.984 16.1939 642.315 17.1857 642.315 18.4944V20.8913H637.521V23.1849C637.521 24.0389 637.796 24.466 638.347 24.466C638.926 24.466 639.215 24.0803 639.215 23.3088V22.0484H642.315V23.2055C642.315 24.404 641.963 25.3132 641.261 25.933C640.572 26.5529 639.601 26.8629 638.347 26.8629ZM639.215 19.3209V18.1224C639.215 17.6816 639.132 17.3717 638.967 17.1926C638.816 16.9998 638.602 16.9033 638.327 16.9033C638.065 16.9033 637.865 17.0066 637.727 17.2133C637.59 17.4199 637.521 17.785 637.521 18.3084V19.3209H639.215ZM644.148 14.7131H647.454V15.6636C648.253 14.8784 649.197 14.4858 650.285 14.4858C650.767 14.4858 651.18 14.6097 651.525 14.8577C651.883 15.0919 652.151 15.4431 652.33 15.9115C653.171 14.961 654.183 14.4858 655.368 14.4858C656.07 14.4858 656.628 14.7475 657.042 15.271C657.469 15.7806 657.682 16.4832 657.682 17.3786V26.6562H654.376V17.7298C654.376 17.3992 654.314 17.1651 654.19 17.0273C654.08 16.8758 653.908 16.8 653.674 16.8C653.522 16.8 653.343 16.8413 653.136 16.924C652.93 16.9929 652.737 17.0962 652.558 17.2339V17.3786V26.6562H649.293V17.7298C649.293 17.11 649.052 16.8 648.57 16.8C648.253 16.8 647.881 16.9447 647.454 17.2339V26.6562H644.148V14.7131ZM663.611 26.8629C662.302 26.8629 661.283 26.5185 660.553 25.8297C659.823 25.1272 659.458 24.1423 659.458 22.8749V18.4944C659.458 17.2271 659.823 16.249 660.553 15.5602C661.283 14.8577 662.302 14.5064 663.611 14.5064C664.933 14.5064 665.925 14.8439 666.586 15.5189C667.248 16.1939 667.578 17.1857 667.578 18.4944V20.8913H662.784V23.1849C662.784 24.0389 663.06 24.466 663.611 24.466C664.19 24.466 664.479 24.0803 664.479 23.3088V22.0484H667.578V23.2055C667.578 24.404 667.227 25.3132 666.524 25.933C665.836 26.5529 664.865 26.8629 663.611 26.8629ZM664.479 19.3209V18.1224C664.479 17.6816 664.396 17.3717 664.231 17.1926C664.079 16.9998 663.866 16.9033 663.59 16.9033C663.329 16.9033 663.129 17.0066 662.991 17.2133C662.853 17.4199 662.784 17.785 662.784 18.3084V19.3209H664.479ZM669.412 14.7131H672.78V15.9115C673.716 14.9748 674.674 14.5064 675.652 14.5064C676.368 14.5064 676.912 14.7682 677.284 15.2916C677.67 15.8013 677.863 16.4694 677.863 17.2959V26.6562H674.515V17.7712C674.515 17.4681 674.46 17.2477 674.35 17.11C674.254 16.9584 674.081 16.8827 673.833 16.8827C673.558 16.8827 673.207 17.0273 672.78 17.3166V26.6562H669.412V14.7131ZM683.583 26.7802C682.701 26.7802 682.02 26.6562 681.537 26.4083C681.055 26.1466 680.718 25.7746 680.525 25.2925C680.332 24.8104 680.236 24.1836 680.236 23.4122V16.924H679.078V14.7131H680.236V11.0764H683.645V14.7131H685.339V16.924H683.645V23.0816C683.645 23.4122 683.735 23.6601 683.914 23.8254C684.106 23.977 684.368 24.0527 684.699 24.0527C684.974 24.0527 685.277 24.0252 685.608 23.9701V26.6149C684.947 26.7251 684.272 26.7802 683.583 26.7802Z" fill="#4478C0"/>
</g>
<circle cx="502.17" cy="17.8317" r="5.08606" stroke="#4478C0" stroke-width="1.72184"/>
<circle cx="502.17" cy="17.8317" r="5.08606" stroke="#4478C0" stroke-width="1.72184"/>
<g filter="url(#filter4_i_213_93)">
<path d="M727.877 26.1223C726.085 26.1223 724.809 25.654 724.049 24.7173C723.302 23.7672 722.929 22.403 722.929 20.6248V14.6793C722.929 12.8604 723.302 11.4894 724.049 10.5663C724.796 9.62972 726.071 9.16142 727.877 9.16142C729.601 9.16142 730.822 9.57543 731.542 10.4034C732.261 11.2315 732.621 12.4056 732.621 13.9259V15.3512H729.058V13.702C729.058 13.064 728.99 12.5753 728.854 12.236C728.718 11.8966 728.393 11.7269 727.877 11.7269C727.361 11.7269 727.022 11.9102 726.859 12.2767C726.696 12.6296 726.614 13.1251 726.614 13.763V21.5206C726.614 22.1722 726.696 22.6744 726.859 23.0274C727.035 23.3667 727.375 23.5364 727.877 23.5364C728.379 23.5364 728.698 23.3667 728.834 23.0274C728.983 22.6744 729.058 22.1722 729.058 21.5206V19.7899H732.621V21.2152C732.621 22.7627 732.261 23.9708 731.542 24.8395C730.822 25.6947 729.601 26.1223 727.877 26.1223ZM738.311 26.0815C737.022 26.0815 736.011 25.7558 735.278 25.1042C734.558 24.4526 734.199 23.4957 734.199 22.2333V17.7538C734.199 16.4914 734.558 15.5345 735.278 14.8829C736.011 14.2313 737.022 13.9056 738.311 13.9056C739.601 13.9056 740.612 14.2381 741.345 14.9033C742.078 15.5548 742.445 16.505 742.445 17.7538V22.2333C742.445 23.4821 742.078 24.4391 741.345 25.1042C740.612 25.7558 739.601 26.0815 738.311 26.0815ZM738.332 23.8825C738.644 23.8825 738.861 23.7672 738.983 23.5364C739.106 23.2921 739.167 22.9323 739.167 22.4573V17.5299C739.167 17.0548 739.106 16.7018 738.983 16.4711C738.861 16.2267 738.644 16.1046 738.332 16.1046C738.02 16.1046 737.796 16.2267 737.66 16.4711C737.538 16.7154 737.477 17.0683 737.477 17.5299V22.4573C737.477 22.9323 737.538 23.2921 737.66 23.5364C737.796 23.7672 738.02 23.8825 738.332 23.8825ZM744.285 14.1092H747.604V15.2901C748.527 14.3671 749.471 13.9056 750.434 13.9056C751.14 13.9056 751.677 14.1635 752.043 14.6793C752.423 15.1815 752.613 15.8399 752.613 16.6543V25.8779H749.315V17.1226C749.315 16.824 749.26 16.6068 749.152 16.4711C749.057 16.3218 748.887 16.2471 748.643 16.2471C748.371 16.2471 748.025 16.3896 747.604 16.6747V25.8779H744.285V14.1092ZM758.25 26.0001C757.381 26.0001 756.709 25.8779 756.234 25.6336C755.759 25.3757 755.426 25.0092 755.236 24.5341C755.046 24.059 754.951 23.4414 754.951 22.6812V16.2878H753.811V14.1092H754.951V10.5256H758.311V14.1092H759.981V16.2878H758.311V22.3554C758.311 22.6812 758.399 22.9256 758.576 23.0885C758.766 23.2378 759.024 23.3124 759.349 23.3124C759.621 23.3124 759.919 23.2853 760.245 23.231V25.8372C759.594 25.9458 758.929 26.0001 758.25 26.0001ZM765.651 26.0815C764.362 26.0815 763.357 25.7422 762.638 25.0635C761.919 24.3712 761.559 23.4007 761.559 22.1518V17.8353C761.559 16.5865 761.919 15.6227 762.638 14.944C763.357 14.2517 764.362 13.9056 765.651 13.9056C766.955 13.9056 767.932 14.2381 768.583 14.9033C769.235 15.5684 769.561 16.5457 769.561 17.8353V20.1972H764.837V22.4573C764.837 23.2988 765.108 23.7196 765.651 23.7196C766.222 23.7196 766.507 23.3396 766.507 22.5794V21.3374H769.561V22.4776C769.561 23.6586 769.215 24.5545 768.522 25.1653C767.844 25.7761 766.887 26.0815 765.651 26.0815ZM766.507 18.6497V17.4688C766.507 17.0344 766.425 16.729 766.262 16.5525C766.113 16.3625 765.903 16.2675 765.631 16.2675C765.373 16.2675 765.176 16.3693 765.041 16.5729C764.905 16.7765 764.837 17.1362 764.837 17.652V18.6497H766.507ZM771.367 14.1092H774.686V15.2901C775.609 14.3671 776.553 13.9056 777.516 13.9056C778.222 13.9056 778.758 14.1635 779.125 14.6793C779.505 15.1815 779.695 15.8399 779.695 16.6543V25.8779H776.397V17.1226C776.397 16.824 776.342 16.6068 776.234 16.4711C776.139 16.3218 775.969 16.2471 775.725 16.2471C775.453 16.2471 775.107 16.3896 774.686 16.6747V25.8779H771.367V14.1092ZM785.332 26.0001C784.463 26.0001 783.791 25.8779 783.316 25.6336C782.841 25.3757 782.508 25.0092 782.318 24.5341C782.128 24.059 782.033 23.4414 782.033 22.6812V16.2878H780.893V14.1092H782.033V10.5256H785.393V14.1092H787.062V16.2878H785.393V22.3554C785.393 22.6812 785.481 22.9256 785.658 23.0885C785.848 23.2378 786.105 23.3124 786.431 23.3124C786.703 23.3124 787.001 23.2853 787.327 23.231V25.8372C786.676 25.9458 786.01 26.0001 785.332 26.0001ZM794.502 9.38539H798.411L800.223 18.9755L802.178 9.38539H805.945L806.23 25.8779H803.644L803.339 14.9033L801.425 25.8779H799.124L797.088 14.8218L796.843 25.8779H794.217L794.502 9.38539ZM810.854 26.0815C810.284 26.0815 809.788 25.9458 809.368 25.6743C808.96 25.3893 808.648 25.0295 808.431 24.5952C808.227 24.1472 808.126 23.6857 808.126 23.2106C808.126 22.3012 808.356 21.5546 808.818 20.9709C809.279 20.3872 809.829 19.9325 810.467 19.6067C811.119 19.2809 811.953 18.9416 812.972 18.5886V17.4077C812.972 17.0683 812.917 16.8104 812.809 16.634C812.714 16.4575 812.537 16.3693 812.279 16.3693C812.021 16.3693 811.838 16.4507 811.73 16.6136C811.621 16.7765 811.56 17.0073 811.546 17.3059L811.465 18.161L808.37 18.0389C808.424 16.6272 808.798 15.5888 809.49 14.9236C810.182 14.2449 811.214 13.9056 812.585 13.9056C813.738 13.9056 814.621 14.2313 815.232 14.8829C815.842 15.5209 816.148 16.3761 816.148 17.4484V22.9459C816.148 24.1404 816.216 25.1178 816.352 25.8779H813.379C813.257 24.9685 813.168 24.4119 813.114 24.2083C812.951 24.7513 812.68 25.1992 812.3 25.5522C811.92 25.9051 811.438 26.0815 810.854 26.0815ZM812.035 23.8418C812.374 23.8418 812.686 23.645 812.972 23.2513V20.0343C812.361 20.3872 811.899 20.7605 811.587 21.1541C811.275 21.5342 811.119 22.0025 811.119 22.5591C811.119 22.9527 811.2 23.2649 811.363 23.4957C811.526 23.7264 811.75 23.8418 812.035 23.8418ZM818.114 14.1092H821.433V15.2901C822.356 14.3671 823.3 13.9056 824.264 13.9056C824.969 13.9056 825.506 14.1635 825.872 14.6793C826.252 15.1815 826.442 15.8399 826.442 16.6543V25.8779H823.144V17.1226C823.144 16.824 823.089 16.6068 822.981 16.4711C822.886 16.3218 822.716 16.2471 822.472 16.2471C822.2 16.2471 821.854 16.3896 821.433 16.6747V25.8779H818.114V14.1092ZM830.857 26.0815C830.287 26.0815 829.792 25.9458 829.371 25.6743C828.964 25.3893 828.651 25.0295 828.434 24.5952C828.231 24.1472 828.129 23.6857 828.129 23.2106C828.129 22.3012 828.36 21.5546 828.821 20.9709C829.283 20.3872 829.832 19.9325 830.47 19.6067C831.122 19.2809 831.957 18.9416 832.975 18.5886V17.4077C832.975 17.0683 832.921 16.8104 832.812 16.634C832.717 16.4575 832.54 16.3693 832.283 16.3693C832.025 16.3693 831.841 16.4507 831.733 16.6136C831.624 16.7765 831.563 17.0073 831.55 17.3059L831.468 18.161L828.373 18.0389C828.427 16.6272 828.801 15.5888 829.493 14.9236C830.185 14.2449 831.217 13.9056 832.588 13.9056C833.742 13.9056 834.624 14.2313 835.235 14.8829C835.846 15.5209 836.151 16.3761 836.151 17.4484V22.9459C836.151 24.1404 836.219 25.1178 836.355 25.8779H833.382C833.26 24.9685 833.172 24.4119 833.117 24.2083C832.954 24.7513 832.683 25.1992 832.303 25.5522C831.923 25.9051 831.441 26.0815 830.857 26.0815ZM832.038 23.8418C832.378 23.8418 832.69 23.645 832.975 23.2513V20.0343C832.364 20.3872 831.902 20.7605 831.59 21.1541C831.278 21.5342 831.122 22.0025 831.122 22.5591C831.122 22.9527 831.203 23.2649 831.366 23.4957C831.529 23.7264 831.753 23.8418 832.038 23.8418ZM841.946 29.9502C840.588 29.9502 839.523 29.7466 838.749 29.3393C837.975 28.9457 837.588 28.3484 837.588 27.5475C837.588 26.5431 838.199 25.7625 839.421 25.206C838.335 24.9074 837.792 24.283 837.792 23.3328C837.792 22.8848 837.894 22.4912 838.097 22.1518C838.315 21.8125 838.647 21.446 839.095 21.0523C838.321 20.3601 837.934 19.342 837.934 17.9982C837.934 16.6815 838.294 15.6702 839.014 14.9643C839.747 14.2585 840.792 13.9056 842.149 13.9056C843.357 13.9056 844.287 14.211 844.939 14.8218C845.251 14.3196 845.726 13.9124 846.364 13.6001L846.792 13.3965L847.565 14.9847C847.375 15.0526 847.083 15.1747 846.69 15.3512C846.31 15.5141 845.991 15.6702 845.733 15.8195C846.045 16.4711 846.201 17.2041 846.201 18.0185C846.201 19.3081 845.855 20.3058 845.163 21.0116C844.484 21.7175 843.48 22.0704 842.149 22.0704C841.416 22.0704 840.744 21.9618 840.133 21.7446C839.93 22.0297 839.828 22.2672 839.828 22.4573C839.828 22.6201 839.91 22.7491 840.072 22.8441C840.249 22.9391 840.541 23.0138 840.948 23.0681L844.043 23.4142C845.034 23.5228 845.767 23.8418 846.242 24.3712C846.731 24.9006 846.975 25.6064 846.975 26.4888C846.975 27.6426 846.574 28.5045 845.774 29.0746C844.986 29.6583 843.71 29.9502 841.946 29.9502ZM842.149 20.0954C842.516 20.0954 842.76 19.946 842.882 19.6474C843.004 19.3488 843.066 18.799 843.066 17.9982C843.066 17.1973 843.004 16.6475 842.882 16.3489C842.76 16.0367 842.516 15.8806 842.149 15.8806C841.783 15.8806 841.538 16.0299 841.416 16.3285C841.294 16.6272 841.233 17.1837 841.233 17.9982C841.233 18.7855 841.294 19.3352 841.416 19.6474C841.538 19.946 841.783 20.0954 842.149 20.0954ZM842.373 27.5475C843.174 27.5475 843.758 27.4797 844.124 27.3439C844.504 27.2082 844.694 26.9639 844.694 26.6109C844.694 26.3259 844.565 26.1155 844.308 25.9797C844.063 25.8576 843.602 25.7625 842.923 25.6947L840.744 25.4707C840.283 25.8236 840.052 26.1901 840.052 26.5702C840.052 26.9096 840.229 27.1539 840.581 27.3032C840.948 27.4661 841.545 27.5475 842.373 27.5475ZM852.147 26.0815C850.857 26.0815 849.853 25.7422 849.133 25.0635C848.414 24.3712 848.054 23.4007 848.054 22.1518V17.8353C848.054 16.5865 848.414 15.6227 849.133 14.944C849.853 14.2517 850.857 13.9056 852.147 13.9056C853.45 13.9056 854.427 14.2381 855.079 14.9033C855.73 15.5684 856.056 16.5457 856.056 17.8353V20.1972H851.332V22.4573C851.332 23.2988 851.604 23.7196 852.147 23.7196C852.717 23.7196 853.002 23.3396 853.002 22.5794V21.3374H856.056V22.4776C856.056 23.6586 855.71 24.5545 855.018 25.1653C854.339 25.7761 853.382 26.0815 852.147 26.0815ZM853.002 18.6497V17.4688C853.002 17.0344 852.92 16.729 852.757 16.5525C852.608 16.3625 852.398 16.2675 852.126 16.2675C851.868 16.2675 851.671 16.3693 851.536 16.5729C851.4 16.7765 851.332 17.1362 851.332 17.652V18.6497H853.002ZM857.863 14.1092H861.12V15.0458C861.908 14.2721 862.837 13.8852 863.91 13.8852C864.385 13.8852 864.792 14.0074 865.131 14.2517C865.484 14.4825 865.749 14.8286 865.926 15.2901C866.754 14.3535 867.751 13.8852 868.919 13.8852C869.611 13.8852 870.161 14.1431 870.568 14.6589C870.989 15.1612 871.199 15.8535 871.199 16.7358V25.8779H867.941V17.0819C867.941 16.7561 867.88 16.5254 867.758 16.3896C867.649 16.2403 867.48 16.1657 867.249 16.1657C867.1 16.1657 866.923 16.2064 866.72 16.2878C866.516 16.3557 866.326 16.4575 866.149 16.5932V16.7358V25.8779H862.932V17.0819C862.932 16.4711 862.695 16.1657 862.22 16.1657C861.908 16.1657 861.541 16.3082 861.12 16.5932V25.8779H857.863V14.1092ZM877.041 26.0815C875.752 26.0815 874.747 25.7422 874.028 25.0635C873.308 24.3712 872.949 23.4007 872.949 22.1518V17.8353C872.949 16.5865 873.308 15.6227 874.028 14.944C874.747 14.2517 875.752 13.9056 877.041 13.9056C878.344 13.9056 879.322 14.2381 879.973 14.9033C880.625 15.5684 880.951 16.5457 880.951 17.8353V20.1972H876.227V22.4573C876.227 23.2988 876.498 23.7196 877.041 23.7196C877.611 23.7196 877.896 23.3396 877.896 22.5794V21.3374H880.951V22.4776C880.951 23.6586 880.604 24.5545 879.912 25.1653C879.233 25.7761 878.277 26.0815 877.041 26.0815ZM877.896 18.6497V17.4688C877.896 17.0344 877.815 16.729 877.652 16.5525C877.503 16.3625 877.292 16.2675 877.021 16.2675C876.763 16.2675 876.566 16.3693 876.43 16.5729C876.295 16.7765 876.227 17.1362 876.227 17.652V18.6497H877.896ZM882.757 14.1092H886.076V15.2901C886.999 14.3671 887.943 13.9056 888.906 13.9056C889.612 13.9056 890.148 14.1635 890.515 14.6793C890.895 15.1815 891.085 15.8399 891.085 16.6543V25.8779H887.786V17.1226C887.786 16.824 887.732 16.6068 887.624 16.4711C887.528 16.3218 887.359 16.2471 887.114 16.2471C886.843 16.2471 886.497 16.3896 886.076 16.6747V25.8779H882.757V14.1092ZM896.722 26.0001C895.853 26.0001 895.181 25.8779 894.706 25.6336C894.231 25.3757 893.898 25.0092 893.708 24.5341C893.518 24.059 893.423 23.4414 893.423 22.6812V16.2878H892.283V14.1092H893.423V10.5256H896.783V14.1092H898.452V16.2878H896.783V22.3554C896.783 22.6812 896.871 22.9256 897.047 23.0885C897.237 23.2378 897.495 23.3124 897.821 23.3124C898.093 23.3124 898.391 23.2853 898.717 23.231V25.8372C898.065 25.9458 897.4 26.0001 896.722 26.0001Z" fill="#4478C0"/>
</g>
<circle cx="708.66" cy="18.7302" r="5.08606" stroke="#4478C0" stroke-width="1.72184"/>
<circle cx="708.66" cy="18.7302" r="5.08606" stroke="#4478C0" stroke-width="1.72184"/>
<g filter="url(#filter5_i_213_93)">
<path d="M941.486 9.83439H949.028V12.362H945.195V16.5264H948.116V19.0955H945.195V24.1093H949.069V26.6162H941.486V9.83439ZM952.286 20.0485L949.862 14.641H953.26L954.544 17.5209L955.684 14.641H958.274L955.912 20.5457L958.626 26.6162H955.187L953.736 23.322L952.535 26.6162H949.738L952.286 20.0485ZM962.197 26.8234C961.617 26.8234 961.113 26.6853 960.685 26.409C960.27 26.119 959.953 25.7529 959.732 25.311C959.525 24.8552 959.421 24.3855 959.421 23.9021C959.421 22.9767 959.656 22.217 960.125 21.6231C960.595 21.0292 961.154 20.5665 961.804 20.235C962.467 19.9035 963.316 19.5582 964.352 19.1991V17.9974C964.352 17.6521 964.297 17.3897 964.186 17.2101C964.09 17.0305 963.91 16.9408 963.648 16.9408C963.385 16.9408 963.199 17.0236 963.088 17.1894C962.978 17.3551 962.916 17.5899 962.902 17.8938L962.819 18.764L959.67 18.6397C959.725 17.2032 960.105 16.1466 960.809 15.4698C961.514 14.7792 962.563 14.4339 963.958 14.4339C965.132 14.4339 966.03 14.7653 966.652 15.4283C967.273 16.0775 967.584 16.9477 967.584 18.0388V23.6328C967.584 24.8482 967.653 25.8427 967.791 26.6162H964.766C964.642 25.6908 964.552 25.1245 964.497 24.9173C964.331 25.4698 964.055 25.9256 963.668 26.2847C963.282 26.6438 962.791 26.8234 962.197 26.8234ZM963.399 24.5444C963.744 24.5444 964.062 24.3441 964.352 23.9436V20.6701C963.73 21.0292 963.261 21.409 962.943 21.8096C962.625 22.1963 962.467 22.6728 962.467 23.2391C962.467 23.6397 962.549 23.9574 962.715 24.1922C962.881 24.427 963.109 24.5444 963.399 24.5444ZM969.585 14.641H972.9V15.5941C973.701 14.8068 974.647 14.4131 975.738 14.4131C976.222 14.4131 976.636 14.5374 976.982 14.7861C977.341 15.0209 977.61 15.3731 977.79 15.8427C978.632 14.8897 979.647 14.4131 980.835 14.4131C981.54 14.4131 982.099 14.6756 982.513 15.2004C982.942 15.7115 983.156 16.4159 983.156 17.3137V26.6162H979.841V17.6659C979.841 17.3344 979.779 17.0996 979.654 16.9615C979.544 16.8095 979.371 16.7336 979.136 16.7336C978.984 16.7336 978.805 16.775 978.598 16.8579C978.39 16.927 978.197 17.0305 978.017 17.1687V17.3137V26.6162H974.744V17.6659C974.744 17.0444 974.502 16.7336 974.019 16.7336C973.701 16.7336 973.328 16.8786 972.9 17.1687V26.6162H969.585V14.641ZM990.9 9.83439H994.878L996.722 19.5927L998.711 9.83439H1002.54L1002.83 26.6162H1000.2L999.892 15.449L997.944 26.6162H995.603L993.531 15.3662L993.282 26.6162H990.61L990.9 9.83439ZM1007.54 26.8234C1006.96 26.8234 1006.45 26.6853 1006.03 26.409C1005.61 26.119 1005.29 25.7529 1005.07 25.311C1004.87 24.8552 1004.76 24.3855 1004.76 23.9021C1004.76 22.9767 1005 22.217 1005.47 21.6231C1005.94 21.0292 1006.5 20.5665 1007.15 20.235C1007.81 19.9035 1008.66 19.5582 1009.69 19.1991V17.9974C1009.69 17.6521 1009.64 17.3897 1009.53 17.2101C1009.43 17.0305 1009.25 16.9408 1008.99 16.9408C1008.73 16.9408 1008.54 17.0236 1008.43 17.1894C1008.32 17.3551 1008.26 17.5899 1008.24 17.8938L1008.16 18.764L1005.01 18.6397C1005.07 17.2032 1005.45 16.1466 1006.15 15.4698C1006.86 14.7792 1007.9 14.4339 1009.3 14.4339C1010.47 14.4339 1011.37 14.7653 1011.99 15.4283C1012.61 16.0775 1012.93 16.9477 1012.93 18.0388V23.6328C1012.93 24.8482 1012.99 25.8427 1013.13 26.6162H1010.11C1009.98 25.6908 1009.89 25.1245 1009.84 24.9173C1009.67 25.4698 1009.4 25.9256 1009.01 26.2847C1008.62 26.6438 1008.13 26.8234 1007.54 26.8234ZM1008.74 24.5444C1009.09 24.5444 1009.4 24.3441 1009.69 23.9436V20.6701C1009.07 21.0292 1008.6 21.409 1008.28 21.8096C1007.97 22.1963 1007.81 22.6728 1007.81 23.2391C1007.81 23.6397 1007.89 23.9574 1008.06 24.1922C1008.22 24.427 1008.45 24.5444 1008.74 24.5444ZM1014.93 14.641H1018.3V15.8427C1019.24 14.9035 1020.2 14.4339 1021.18 14.4339C1021.9 14.4339 1022.45 14.6963 1022.82 15.2211C1023.21 15.7322 1023.4 16.4021 1023.4 17.2308V26.6162H1020.04V17.7073C1020.04 17.4035 1019.99 17.1825 1019.88 17.0444C1019.78 16.8924 1019.61 16.8165 1019.36 16.8165C1019.08 16.8165 1018.73 16.9615 1018.3 17.2515V26.6162H1014.93V14.641ZM1027.89 26.8234C1027.31 26.8234 1026.81 26.6853 1026.38 26.409C1025.97 26.119 1025.65 25.7529 1025.43 25.311C1025.22 24.8552 1025.12 24.3855 1025.12 23.9021C1025.12 22.9767 1025.35 22.217 1025.82 21.6231C1026.29 21.0292 1026.85 20.5665 1027.5 20.235C1028.16 19.9035 1029.01 19.5582 1030.05 19.1991V17.9974C1030.05 17.6521 1029.99 17.3897 1029.88 17.2101C1029.79 17.0305 1029.61 16.9408 1029.34 16.9408C1029.08 16.9408 1028.89 17.0236 1028.78 17.1894C1028.67 17.3551 1028.61 17.5899 1028.6 17.8938L1028.51 18.764L1025.37 18.6397C1025.42 17.2032 1025.8 16.1466 1026.5 15.4698C1027.21 14.7792 1028.26 14.4339 1029.65 14.4339C1030.83 14.4339 1031.73 14.7653 1032.35 15.4283C1032.97 16.0775 1033.28 16.9477 1033.28 18.0388V23.6328C1033.28 24.8482 1033.35 25.8427 1033.49 26.6162H1030.46C1030.34 25.6908 1030.25 25.1245 1030.19 24.9173C1030.03 25.4698 1029.75 25.9256 1029.36 26.2847C1028.98 26.6438 1028.49 26.8234 1027.89 26.8234ZM1029.09 24.5444C1029.44 24.5444 1029.76 24.3441 1030.05 23.9436V20.6701C1029.43 21.0292 1028.96 21.409 1028.64 21.8096C1028.32 22.1963 1028.16 22.6728 1028.16 23.2391C1028.16 23.6397 1028.25 23.9574 1028.41 24.1922C1028.58 24.427 1028.8 24.5444 1029.09 24.5444ZM1039.18 30.7599C1037.79 30.7599 1036.71 30.5527 1035.92 30.1383C1035.14 29.7378 1034.74 29.13 1034.74 28.3151C1034.74 27.293 1035.36 26.4988 1036.61 25.9325C1035.5 25.6286 1034.95 24.9933 1034.95 24.0264C1034.95 23.5706 1035.05 23.1701 1035.26 22.8248C1035.48 22.4795 1035.82 22.1065 1036.28 21.706C1035.49 21.0016 1035.09 19.9656 1035.09 18.5982C1035.09 17.2584 1035.46 16.2294 1036.19 15.5112C1036.94 14.793 1038 14.4339 1039.38 14.4339C1040.61 14.4339 1041.56 14.7446 1042.22 15.3662C1042.54 14.8551 1043.02 14.4408 1043.67 14.1231L1044.11 13.9159L1044.89 15.5319C1044.7 15.601 1044.4 15.7253 1044 15.9048C1043.62 16.0706 1043.29 16.2294 1043.03 16.3814C1043.35 17.0444 1043.51 17.7902 1043.51 18.6189C1043.51 19.9311 1043.15 20.9463 1042.45 21.6645C1041.76 22.3828 1040.74 22.7419 1039.38 22.7419C1038.64 22.7419 1037.95 22.6314 1037.33 22.4104C1037.12 22.7005 1037.02 22.9422 1037.02 23.1355C1037.02 23.3013 1037.1 23.4325 1037.27 23.5292C1037.45 23.6259 1037.75 23.7018 1038.16 23.7571L1041.31 24.1093C1042.32 24.2198 1043.06 24.5444 1043.55 25.0831C1044.04 25.6217 1044.29 26.34 1044.29 27.2378C1044.29 28.4118 1043.89 29.2889 1043.07 29.869C1042.27 30.4629 1040.97 30.7599 1039.18 30.7599ZM1039.38 20.7322C1039.76 20.7322 1040 20.5803 1040.13 20.2764C1040.25 19.9725 1040.32 19.4131 1040.32 18.5982C1040.32 17.7833 1040.25 17.2239 1040.13 16.92C1040 16.6024 1039.76 16.4435 1039.38 16.4435C1039.01 16.4435 1038.76 16.5955 1038.64 16.8993C1038.51 17.2032 1038.45 17.7695 1038.45 18.5982C1038.45 19.3993 1038.51 19.9587 1038.64 20.2764C1038.76 20.5803 1039.01 20.7322 1039.38 20.7322ZM1039.61 28.3151C1040.43 28.3151 1041.02 28.2461 1041.39 28.1079C1041.78 27.9698 1041.97 27.7212 1041.97 27.3621C1041.97 27.072 1041.84 26.8579 1041.58 26.7198C1041.33 26.5955 1040.86 26.4988 1040.17 26.4297L1037.95 26.2018C1037.48 26.561 1037.25 26.9339 1037.25 27.3206C1037.25 27.6659 1037.43 27.9146 1037.79 28.0665C1038.16 28.2322 1038.77 28.3151 1039.61 28.3151ZM1049.56 26.8234C1048.24 26.8234 1047.22 26.4781 1046.49 25.7875C1045.76 25.0831 1045.39 24.0955 1045.39 22.8248V18.4325C1045.39 17.1618 1045.76 16.1811 1046.49 15.4905C1047.22 14.7861 1048.24 14.4339 1049.56 14.4339C1050.88 14.4339 1051.88 14.7722 1052.54 15.449C1053.2 16.1258 1053.53 17.1203 1053.53 18.4325V20.8358H1048.73V23.1355C1048.73 23.9919 1049 24.4201 1049.56 24.4201C1050.14 24.4201 1050.43 24.0333 1050.43 23.2598V21.996H1053.53V23.1563C1053.53 24.3579 1053.18 25.2695 1052.48 25.8911C1051.79 26.5126 1050.81 26.8234 1049.56 26.8234ZM1050.43 19.2612V18.0596C1050.43 17.6176 1050.34 17.3068 1050.18 17.1272C1050.03 16.9339 1049.81 16.8372 1049.53 16.8372C1049.27 16.8372 1049.07 16.9408 1048.93 17.1479C1048.8 17.3551 1048.73 17.7212 1048.73 18.246V19.2612H1050.43ZM1055.37 14.641H1058.69V15.5941C1059.49 14.8068 1060.43 14.4131 1061.53 14.4131C1062.01 14.4131 1062.42 14.5374 1062.77 14.7861C1063.13 15.0209 1063.4 15.3731 1063.58 15.8427C1064.42 14.8897 1065.43 14.4131 1066.62 14.4131C1067.33 14.4131 1067.89 14.6756 1068.3 15.2004C1068.73 15.7115 1068.94 16.4159 1068.94 17.3137V26.6162H1065.63V17.6659C1065.63 17.3344 1065.57 17.0996 1065.44 16.9615C1065.33 16.8095 1065.16 16.7336 1064.92 16.7336C1064.77 16.7336 1064.59 16.775 1064.38 16.8579C1064.18 16.927 1063.98 17.0305 1063.8 17.1687V17.3137V26.6162H1060.53V17.6659C1060.53 17.0444 1060.29 16.7336 1059.81 16.7336C1059.49 16.7336 1059.11 16.8786 1058.69 17.1687V26.6162H1055.37V14.641ZM1074.89 26.8234C1073.57 26.8234 1072.55 26.4781 1071.82 25.7875C1071.09 25.0831 1070.72 24.0955 1070.72 22.8248V18.4325C1070.72 17.1618 1071.09 16.1811 1071.82 15.4905C1072.55 14.7861 1073.57 14.4339 1074.89 14.4339C1076.21 14.4339 1077.21 14.7722 1077.87 15.449C1078.53 16.1258 1078.86 17.1203 1078.86 18.4325V20.8358H1074.06V23.1355C1074.06 23.9919 1074.33 24.4201 1074.89 24.4201C1075.47 24.4201 1075.76 24.0333 1075.76 23.2598V21.996H1078.86V23.1563C1078.86 24.3579 1078.51 25.2695 1077.81 25.8911C1077.12 26.5126 1076.14 26.8234 1074.89 26.8234ZM1075.76 19.2612V18.0596C1075.76 17.6176 1075.67 17.3068 1075.51 17.1272C1075.36 16.9339 1075.14 16.8372 1074.87 16.8372C1074.6 16.8372 1074.4 16.9408 1074.27 17.1479C1074.13 17.3551 1074.06 17.7212 1074.06 18.246V19.2612H1075.76ZM1080.7 14.641H1084.08V15.8427C1085.02 14.9035 1085.98 14.4339 1086.96 14.4339C1087.68 14.4339 1088.22 14.6963 1088.6 15.2211C1088.98 15.7322 1089.18 16.4021 1089.18 17.2308V26.6162H1085.82V17.7073C1085.82 17.4035 1085.77 17.1825 1085.65 17.0444C1085.56 16.8924 1085.39 16.8165 1085.14 16.8165C1084.86 16.8165 1084.51 16.9615 1084.08 17.2515V26.6162H1080.7V14.641ZM1094.91 26.7405C1094.03 26.7405 1093.34 26.6162 1092.86 26.3676C1092.38 26.1052 1092.04 25.7322 1091.85 25.2488C1091.65 24.7654 1091.56 24.1369 1091.56 23.3634V16.8579H1090.4V14.641H1091.56V10.9946H1094.97V14.641H1096.67V16.8579H1094.97V23.0319C1094.97 23.3634 1095.06 23.6121 1095.24 23.7778C1095.44 23.9297 1095.7 24.0057 1096.03 24.0057C1096.31 24.0057 1096.61 23.9781 1096.94 23.9228V26.5748C1096.28 26.6853 1095.6 26.7405 1094.91 26.7405Z" fill="#4478C0"/>
</g>
<circle cx="926.577" cy="18.4685" r="5.08606" stroke="#4478C0" stroke-width="1.72184"/>
<circle cx="926.577" cy="18.4685" r="5.08606" stroke="#4478C0" stroke-width="1.72184"/>
<g filter="url(#filter6_i_213_93)">
<path d="M1136.1 12.4625H1133.56V9.69492H1142.36V12.4625H1139.85V26.5498H1136.1V12.4625ZM1143.7 14.5225H1147.09V16.5201C1147.51 15.7849 1147.91 15.2439 1148.3 14.897C1148.69 14.5502 1149.15 14.3768 1149.67 14.3768C1149.87 14.3768 1150.04 14.3976 1150.19 14.4393V17.8102C1149.78 17.6438 1149.41 17.5605 1149.09 17.5605C1148.36 17.5605 1147.69 17.949 1147.09 18.7258V26.5498H1143.7V14.5225ZM1154.04 26.7579C1153.46 26.7579 1152.95 26.6192 1152.52 26.3417C1152.11 26.0504 1151.79 25.6828 1151.57 25.2389C1151.36 24.7811 1151.25 24.3094 1151.25 23.8239C1151.25 22.8944 1151.49 22.1315 1151.96 21.535C1152.43 20.9384 1152.99 20.4737 1153.65 20.1408C1154.31 19.8079 1155.17 19.461 1156.21 19.1004V17.8935C1156.21 17.5467 1156.15 17.2831 1156.04 17.1027C1155.94 16.9224 1155.76 16.8322 1155.5 16.8322C1155.23 16.8322 1155.05 16.9155 1154.94 17.0819C1154.83 17.2484 1154.76 17.4842 1154.75 17.7894L1154.67 18.6634L1151.5 18.5385C1151.56 17.0958 1151.94 16.0346 1152.65 15.3548C1153.35 14.6612 1154.41 14.3144 1155.81 14.3144C1156.99 14.3144 1157.89 14.6473 1158.52 15.3132C1159.14 15.9652 1159.45 16.8392 1159.45 17.9351V23.5534C1159.45 24.7741 1159.52 25.773 1159.66 26.5498H1156.62C1156.5 25.6204 1156.41 25.0516 1156.35 24.8435C1156.18 25.3984 1155.91 25.8562 1155.52 26.2169C1155.13 26.5775 1154.64 26.7579 1154.04 26.7579ZM1155.25 24.469C1155.6 24.469 1155.91 24.2678 1156.21 23.8655V20.5778C1155.58 20.9384 1155.11 21.3199 1154.79 21.7222C1154.47 22.1107 1154.31 22.5893 1154.31 23.158C1154.31 23.5603 1154.4 23.8794 1154.56 24.1152C1154.73 24.351 1154.96 24.469 1155.25 24.469ZM1161.46 10.1319H1164.87V12.4833H1161.46V10.1319ZM1161.48 14.5225H1164.87V26.5498H1161.48V14.5225ZM1166.97 14.5225H1170.36V15.7294C1171.3 14.7861 1172.27 14.3144 1173.25 14.3144C1173.97 14.3144 1174.52 14.578 1174.9 15.1051C1175.28 15.6184 1175.48 16.2912 1175.48 17.1236V26.5498H1172.11V17.6022C1172.11 17.297 1172.05 17.075 1171.94 16.9363C1171.84 16.7837 1171.67 16.7074 1171.42 16.7074C1171.14 16.7074 1170.79 16.853 1170.36 17.1444V26.5498H1166.97V14.5225ZM1177.51 10.1319H1180.93V12.4833H1177.51V10.1319ZM1177.54 14.5225H1180.93V26.5498H1177.54V14.5225ZM1183.02 14.5225H1186.41V15.7294C1187.36 14.7861 1188.32 14.3144 1189.31 14.3144C1190.03 14.3144 1190.58 14.578 1190.95 15.1051C1191.34 15.6184 1191.53 16.2912 1191.53 17.1236V26.5498H1188.16V17.6022C1188.16 17.297 1188.11 17.075 1188 16.9363C1187.9 16.7837 1187.72 16.7074 1187.47 16.7074C1187.2 16.7074 1186.84 16.853 1186.41 17.1444V26.5498H1183.02V14.5225ZM1197.48 30.7115C1196.09 30.7115 1195 30.5034 1194.21 30.0872C1193.42 29.685 1193.03 29.0746 1193.03 28.2561C1193.03 27.2295 1193.65 26.4319 1194.9 25.8631C1193.79 25.5579 1193.24 24.9198 1193.24 23.9487C1193.24 23.491 1193.34 23.0887 1193.55 22.7418C1193.77 22.395 1194.11 22.0205 1194.57 21.6182C1193.78 20.9107 1193.38 19.8703 1193.38 18.4969C1193.38 17.1513 1193.75 16.1178 1194.48 15.3964C1195.23 14.6751 1196.3 14.3144 1197.69 14.3144C1198.92 14.3144 1199.87 14.6265 1200.54 15.2508C1200.86 14.7375 1201.34 14.3213 1202 14.0023L1202.43 13.7942L1203.22 15.4173C1203.03 15.4866 1202.73 15.6115 1202.33 15.7918C1201.94 15.9583 1201.61 16.1178 1201.35 16.2704C1201.67 16.9363 1201.83 17.6854 1201.83 18.5177C1201.83 19.8356 1201.48 20.8552 1200.77 21.5766C1200.07 22.2979 1199.05 22.6586 1197.69 22.6586C1196.94 22.6586 1196.25 22.5476 1195.63 22.3257C1195.42 22.617 1195.32 22.8598 1195.32 23.054C1195.32 23.2204 1195.4 23.3522 1195.57 23.4493C1195.75 23.5464 1196.04 23.6227 1196.46 23.6782L1199.62 24.032C1200.64 24.143 1201.39 24.469 1201.87 25.01C1202.37 25.551 1202.62 26.2724 1202.62 27.1741C1202.62 28.3532 1202.21 29.2341 1201.39 29.8167C1200.59 30.4132 1199.28 30.7115 1197.48 30.7115ZM1197.69 20.6402C1198.06 20.6402 1198.31 20.4876 1198.44 20.1824C1198.56 19.8772 1198.62 19.3154 1198.62 18.4969C1198.62 17.6784 1198.56 17.1166 1198.44 16.8114C1198.31 16.4924 1198.06 16.3328 1197.69 16.3328C1197.31 16.3328 1197.06 16.4854 1196.94 16.7906C1196.81 17.0958 1196.75 17.6646 1196.75 18.4969C1196.75 19.3015 1196.81 19.8633 1196.94 20.1824C1197.06 20.4876 1197.31 20.6402 1197.69 20.6402ZM1197.92 28.2561C1198.74 28.2561 1199.33 28.1867 1199.71 28.048C1200.1 27.9093 1200.29 27.6596 1200.29 27.2989C1200.29 27.0076 1200.16 26.7926 1199.89 26.6538C1199.64 26.529 1199.17 26.4319 1198.48 26.3625L1196.25 26.1336C1195.78 26.4943 1195.55 26.8689 1195.55 27.2573C1195.55 27.6041 1195.73 27.8538 1196.09 28.0064C1196.46 28.1729 1197.07 28.2561 1197.92 28.2561ZM1209.73 9.69492H1213.73L1215.58 19.4957L1217.58 9.69492H1221.43L1221.72 26.5498H1219.08L1218.76 15.334L1216.81 26.5498H1214.46L1212.38 15.2508L1212.13 26.5498H1209.44L1209.73 9.69492ZM1226.44 26.7579C1225.86 26.7579 1225.36 26.6192 1224.93 26.3417C1224.51 26.0504 1224.19 25.6828 1223.97 25.2389C1223.76 24.7811 1223.66 24.3094 1223.66 23.8239C1223.66 22.8944 1223.89 22.1315 1224.36 21.535C1224.84 20.9384 1225.4 20.4737 1226.05 20.1408C1226.72 19.8079 1227.57 19.461 1228.61 19.1004V17.8935C1228.61 17.5467 1228.55 17.2831 1228.44 17.1027C1228.35 16.9224 1228.16 16.8322 1227.9 16.8322C1227.64 16.8322 1227.45 16.9155 1227.34 17.0819C1227.23 17.2484 1227.17 17.4842 1227.15 17.7894L1227.07 18.6634L1223.91 18.5385C1223.96 17.0958 1224.34 16.0346 1225.05 15.3548C1225.76 14.6612 1226.81 14.3144 1228.21 14.3144C1229.39 14.3144 1230.29 14.6473 1230.92 15.3132C1231.54 15.9652 1231.85 16.8392 1231.85 17.9351V23.5534C1231.85 24.7741 1231.92 25.773 1232.06 26.5498H1229.02C1228.9 25.6204 1228.81 25.0516 1228.75 24.8435C1228.59 25.3984 1228.31 25.8562 1227.92 26.2169C1227.53 26.5775 1227.04 26.7579 1226.44 26.7579ZM1227.65 24.469C1228 24.469 1228.32 24.2678 1228.61 23.8655V20.5778C1227.98 20.9384 1227.51 21.3199 1227.19 21.7222C1226.87 22.1107 1226.72 22.5893 1226.72 23.158C1226.72 23.5603 1226.8 23.8794 1226.96 24.1152C1227.13 24.351 1227.36 24.469 1227.65 24.469ZM1233.86 14.5225H1237.26V15.7294C1238.2 14.7861 1239.16 14.3144 1240.15 14.3144C1240.87 14.3144 1241.42 14.578 1241.79 15.1051C1242.18 15.6184 1242.38 16.2912 1242.38 17.1236V26.5498H1239V17.6022C1239 17.297 1238.95 17.075 1238.84 16.9363C1238.74 16.7837 1238.57 16.7074 1238.32 16.7074C1238.04 16.7074 1237.69 16.853 1237.26 17.1444V26.5498H1233.86V14.5225ZM1246.89 26.7579C1246.3 26.7579 1245.8 26.6192 1245.37 26.3417C1244.95 26.0504 1244.63 25.6828 1244.41 25.2389C1244.2 24.7811 1244.1 24.3094 1244.1 23.8239C1244.1 22.8944 1244.33 22.1315 1244.81 21.535C1245.28 20.9384 1245.84 20.4737 1246.49 20.1408C1247.16 19.8079 1248.01 19.461 1249.05 19.1004V17.8935C1249.05 17.5467 1249 17.2831 1248.88 17.1027C1248.79 16.9224 1248.61 16.8322 1248.34 16.8322C1248.08 16.8322 1247.89 16.9155 1247.78 17.0819C1247.67 17.2484 1247.61 17.4842 1247.59 17.7894L1247.51 18.6634L1244.35 18.5385C1244.4 17.0958 1244.79 16.0346 1245.49 15.3548C1246.2 14.6612 1247.25 14.3144 1248.66 14.3144C1249.84 14.3144 1250.74 14.6473 1251.36 15.3132C1251.99 15.9652 1252.3 16.8392 1252.3 17.9351V23.5534C1252.3 24.7741 1252.37 25.773 1252.51 26.5498H1249.47C1249.34 25.6204 1249.25 25.0516 1249.2 24.8435C1249.03 25.3984 1248.75 25.8562 1248.36 26.2169C1247.98 26.5775 1247.48 26.7579 1246.89 26.7579ZM1248.09 24.469C1248.44 24.469 1248.76 24.2678 1249.05 23.8655V20.5778C1248.43 20.9384 1247.96 21.3199 1247.64 21.7222C1247.32 22.1107 1247.16 22.5893 1247.16 23.158C1247.16 23.5603 1247.24 23.8794 1247.41 24.1152C1247.57 24.351 1247.8 24.469 1248.09 24.469ZM1258.22 30.7115C1256.83 30.7115 1255.74 30.5034 1254.95 30.0872C1254.16 29.685 1253.77 29.0746 1253.77 28.2561C1253.77 27.2295 1254.39 26.4319 1255.64 25.8631C1254.53 25.5579 1253.97 24.9198 1253.97 23.9487C1253.97 23.491 1254.08 23.0887 1254.29 22.7418C1254.51 22.395 1254.85 22.0205 1255.31 21.6182C1254.52 20.9107 1254.12 19.8703 1254.12 18.4969C1254.12 17.1513 1254.49 16.1178 1255.22 15.3964C1255.97 14.6751 1257.04 14.3144 1258.43 14.3144C1259.66 14.3144 1260.61 14.6265 1261.28 15.2508C1261.6 14.7375 1262.08 14.3213 1262.73 14.0023L1263.17 13.7942L1263.96 15.4173C1263.77 15.4866 1263.47 15.6115 1263.07 15.7918C1262.68 15.9583 1262.35 16.1178 1262.09 16.2704C1262.41 16.9363 1262.57 17.6854 1262.57 18.5177C1262.57 19.8356 1262.21 20.8552 1261.51 21.5766C1260.81 22.2979 1259.79 22.6586 1258.43 22.6586C1257.68 22.6586 1256.99 22.5476 1256.37 22.3257C1256.16 22.617 1256.06 22.8598 1256.06 23.054C1256.06 23.2204 1256.14 23.3522 1256.3 23.4493C1256.49 23.5464 1256.78 23.6227 1257.2 23.6782L1260.36 24.032C1261.38 24.143 1262.12 24.469 1262.61 25.01C1263.11 25.551 1263.36 26.2724 1263.36 27.1741C1263.36 28.3532 1262.95 29.2341 1262.13 29.8167C1261.33 30.4132 1260.02 30.7115 1258.22 30.7115ZM1258.43 20.6402C1258.8 20.6402 1259.05 20.4876 1259.18 20.1824C1259.3 19.8772 1259.36 19.3154 1259.36 18.4969C1259.36 17.6784 1259.3 17.1166 1259.18 16.8114C1259.05 16.4924 1258.8 16.3328 1258.43 16.3328C1258.05 16.3328 1257.8 16.4854 1257.68 16.7906C1257.55 17.0958 1257.49 17.6646 1257.49 18.4969C1257.49 19.3015 1257.55 19.8633 1257.68 20.1824C1257.8 20.4876 1258.05 20.6402 1258.43 20.6402ZM1258.66 28.2561C1259.47 28.2561 1260.07 28.1867 1260.45 28.048C1260.83 27.9093 1261.03 27.6596 1261.03 27.2989C1261.03 27.0076 1260.9 26.7926 1260.63 26.6538C1260.38 26.529 1259.91 26.4319 1259.22 26.3625L1256.99 26.1336C1256.52 26.4943 1256.28 26.8689 1256.28 27.2573C1256.28 27.6041 1256.46 27.8538 1256.83 28.0064C1257.2 28.1729 1257.81 28.2561 1258.66 28.2561ZM1268.64 26.7579C1267.33 26.7579 1266.3 26.4111 1265.56 25.7175C1264.83 25.01 1264.46 24.0181 1264.46 22.7418V18.3304C1264.46 17.0542 1264.83 16.0693 1265.56 15.3756C1266.3 14.6682 1267.33 14.3144 1268.64 14.3144C1269.98 14.3144 1270.97 14.6543 1271.64 15.334C1272.31 16.0138 1272.64 17.0126 1272.64 18.3304V20.7442H1267.81V23.054C1267.81 23.9141 1268.09 24.3441 1268.64 24.3441C1269.23 24.3441 1269.52 23.9557 1269.52 23.1788V21.9095H1272.64V23.0748C1272.64 24.2817 1272.29 25.1973 1271.58 25.8215C1270.88 26.4458 1269.91 26.7579 1268.64 26.7579ZM1269.52 19.1628V17.9559C1269.52 17.512 1269.44 17.1999 1269.27 17.0195C1269.12 16.8253 1268.9 16.7282 1268.62 16.7282C1268.36 16.7282 1268.16 16.8322 1268.02 17.0403C1267.88 17.2484 1267.81 17.616 1267.81 18.1432V19.1628H1269.52ZM1274.49 14.5225H1277.82V15.4797C1278.62 14.689 1279.57 14.2936 1280.67 14.2936C1281.15 14.2936 1281.57 14.4184 1281.91 14.6682C1282.28 14.904 1282.55 15.2577 1282.73 15.7294C1283.57 14.7722 1284.59 14.2936 1285.78 14.2936C1286.49 14.2936 1287.05 14.5572 1287.47 15.0843C1287.9 15.5976 1288.12 16.3051 1288.12 17.2068V26.5498H1284.79V17.5605C1284.79 17.2276 1284.72 16.9918 1284.6 16.853C1284.49 16.7004 1284.31 16.6242 1284.08 16.6242C1283.93 16.6242 1283.75 16.6658 1283.54 16.749C1283.33 16.8184 1283.14 16.9224 1282.95 17.0611V17.2068V26.5498H1279.67V17.5605C1279.67 16.9363 1279.42 16.6242 1278.94 16.6242C1278.62 16.6242 1278.25 16.7698 1277.82 17.0611V26.5498H1274.49V14.5225ZM1294.09 26.7579C1292.77 26.7579 1291.74 26.4111 1291.01 25.7175C1290.27 25.01 1289.9 24.0181 1289.9 22.7418V18.3304C1289.9 17.0542 1290.27 16.0693 1291.01 15.3756C1291.74 14.6682 1292.77 14.3144 1294.09 14.3144C1295.42 14.3144 1296.42 14.6543 1297.08 15.334C1297.75 16.0138 1298.08 17.0126 1298.08 18.3304V20.7442H1293.25V23.054C1293.25 23.9141 1293.53 24.3441 1294.09 24.3441C1294.67 24.3441 1294.96 23.9557 1294.96 23.1788V21.9095H1298.08V23.0748C1298.08 24.2817 1297.73 25.1973 1297.02 25.8215C1296.33 26.4458 1295.35 26.7579 1294.09 26.7579ZM1294.96 19.1628V17.9559C1294.96 17.512 1294.88 17.1999 1294.71 17.0195C1294.56 16.8253 1294.34 16.7282 1294.07 16.7282C1293.8 16.7282 1293.6 16.8322 1293.46 17.0403C1293.32 17.2484 1293.25 17.616 1293.25 18.1432V19.1628H1294.96ZM1299.93 14.5225H1303.32V15.7294C1304.26 14.7861 1305.23 14.3144 1306.21 14.3144C1306.93 14.3144 1307.48 14.578 1307.86 15.1051C1308.24 15.6184 1308.44 16.2912 1308.44 17.1236V26.5498H1305.07V17.6022C1305.07 17.297 1305.01 17.075 1304.9 16.9363C1304.8 16.7837 1304.63 16.7074 1304.38 16.7074C1304.1 16.7074 1303.75 16.853 1303.32 17.1444V26.5498H1299.93V14.5225ZM1314.2 26.6747C1313.31 26.6747 1312.62 26.5498 1312.14 26.3001C1311.65 26.0365 1311.31 25.662 1311.12 25.1764C1310.92 24.6909 1310.83 24.0597 1310.83 23.2829V16.749H1309.66V14.5225H1310.83V10.8602H1314.26V14.5225H1315.97V16.749H1314.26V22.9499C1314.26 23.2829 1314.35 23.5326 1314.53 23.699C1314.73 23.8516 1314.99 23.9279 1315.32 23.9279C1315.6 23.9279 1315.9 23.9002 1316.24 23.8447V26.5082C1315.57 26.6192 1314.89 26.6747 1314.2 26.6747Z" fill="#4478C0"/>
</g>
<circle cx="1120.06" cy="18.4021" r="5.08606" stroke="#4478C0" stroke-width="1.72184"/>
<circle cx="1120.06" cy="18.4021" r="5.08606" stroke="#4478C0" stroke-width="1.72184"/>
<g filter="url(#filter7_i_213_93)">
<path d="M1365.63 27.275C1363.63 27.275 1362.2 26.7632 1361.35 25.7396C1360.49 24.7008 1360.07 23.1731 1360.07 21.1565V14.2589C1360.07 12.2423 1360.49 10.7299 1361.35 9.72156C1362.2 8.698 1363.63 8.18621 1365.63 8.18621C1367.65 8.18621 1369.09 8.698 1369.94 9.72156C1370.81 10.7451 1371.25 12.2576 1371.25 14.2589V21.1565C1371.25 23.1731 1370.81 24.7008 1369.94 25.7396C1369.09 26.7632 1367.65 27.275 1365.63 27.275ZM1365.63 24.3647C1366.21 24.3647 1366.6 24.1737 1366.78 23.7918C1366.96 23.3946 1367.06 22.8599 1367.06 22.1877V13.2506C1367.06 12.5631 1366.96 12.0284 1366.78 11.6465C1366.6 11.2646 1366.21 11.0736 1365.63 11.0736C1365.08 11.0736 1364.72 11.2722 1364.53 11.6694C1364.35 12.0513 1364.26 12.5784 1364.26 13.2506V22.1877C1364.26 22.8599 1364.34 23.3946 1364.51 23.7918C1364.68 24.1737 1365.05 24.3647 1365.63 24.3647ZM1373.54 13.7547H1377.27V15.0838C1378.31 14.045 1379.37 13.5256 1380.46 13.5256C1381.25 13.5256 1381.86 13.8158 1382.27 14.3964C1382.7 14.9616 1382.91 15.7026 1382.91 16.6192V27H1379.2V17.1463C1379.2 16.8102 1379.14 16.5657 1379.02 16.4129C1378.91 16.2449 1378.72 16.1609 1378.44 16.1609C1378.14 16.1609 1377.75 16.3213 1377.27 16.6421V27H1373.54V13.7547ZM1385.31 8.43828H1389.03V27H1385.31V8.43828ZM1391.44 8.91951H1395.2V11.509H1391.44V8.91951ZM1391.46 13.7547H1395.2V27H1391.46V13.7547ZM1397.51 13.7547H1401.24V15.0838C1402.28 14.045 1403.34 13.5256 1404.43 13.5256C1405.22 13.5256 1405.82 13.8158 1406.24 14.3964C1406.66 14.9616 1406.88 15.7026 1406.88 16.6192V27H1403.17V17.1463C1403.17 16.8102 1403.11 16.5657 1402.98 16.4129C1402.88 16.2449 1402.69 16.1609 1402.41 16.1609C1402.1 16.1609 1401.72 16.3213 1401.24 16.6421V27H1397.51V13.7547ZM1413.45 27.2292C1412 27.2292 1410.87 26.8472 1410.06 26.0834C1409.25 25.3042 1408.85 24.2119 1408.85 22.8064V17.9483C1408.85 16.5428 1409.25 15.4581 1410.06 14.6943C1410.87 13.9151 1412 13.5256 1413.45 13.5256C1414.92 13.5256 1416.02 13.8999 1416.75 14.6484C1417.48 15.397 1417.85 16.497 1417.85 17.9483V20.6065H1412.54V23.1502C1412.54 24.0973 1412.84 24.5709 1413.45 24.5709C1414.09 24.5709 1414.41 24.1432 1414.41 23.2877V21.8898H1417.85V23.1731C1417.85 24.5022 1417.46 25.5105 1416.68 26.198C1415.92 26.8854 1414.84 27.2292 1413.45 27.2292ZM1414.41 18.8649V17.5358C1414.41 17.0469 1414.32 16.7032 1414.14 16.5046C1413.97 16.2907 1413.73 16.1838 1413.43 16.1838C1413.14 16.1838 1412.92 16.2984 1412.76 16.5275C1412.61 16.7567 1412.54 17.1615 1412.54 17.7421V18.8649H1414.41ZM1431.27 27.275C1429.25 27.275 1427.82 26.7479 1426.96 25.6938C1426.12 24.6244 1425.7 23.0891 1425.7 21.0877V14.3964C1425.7 12.3492 1426.12 10.8062 1426.96 9.7674C1427.8 8.71327 1429.24 8.18621 1431.27 8.18621C1433.21 8.18621 1434.59 8.65216 1435.4 9.58407C1436.21 10.516 1436.61 11.8374 1436.61 13.5485V15.1526H1432.6V13.2964C1432.6 12.5784 1432.52 12.0284 1432.37 11.6465C1432.22 11.2646 1431.85 11.0736 1431.27 11.0736C1430.69 11.0736 1430.31 11.2798 1430.12 11.6923C1429.94 12.0895 1429.85 12.6471 1429.85 13.3652V22.096C1429.85 22.8293 1429.94 23.3946 1430.12 23.7918C1430.32 24.1737 1430.71 24.3647 1431.27 24.3647C1431.84 24.3647 1432.19 24.1737 1432.35 23.7918C1432.52 23.3946 1432.6 22.8293 1432.6 22.096V20.1482H1436.61V21.7523C1436.61 23.4939 1436.21 24.8536 1435.4 25.8313C1434.59 26.7938 1433.21 27.275 1431.27 27.275ZM1438.82 8.43828H1442.53V27H1438.82V8.43828ZM1447.68 27.2292C1447.03 27.2292 1446.48 27.0764 1446 26.7708C1445.54 26.45 1445.19 26.0452 1444.95 25.5563C1444.72 25.0522 1444.61 24.5327 1444.61 23.998C1444.61 22.9745 1444.86 22.1342 1445.38 21.4773C1445.9 20.8204 1446.52 20.3086 1447.24 19.942C1447.97 19.5753 1448.91 19.1934 1450.06 18.7962V17.4671C1450.06 17.0851 1450 16.7949 1449.88 16.5963C1449.77 16.3977 1449.57 16.2984 1449.28 16.2984C1448.99 16.2984 1448.78 16.39 1448.66 16.5734C1448.54 16.7567 1448.47 17.0164 1448.45 17.3525L1448.36 18.315L1444.88 18.1775C1444.94 16.5886 1445.36 15.4199 1446.14 14.6714C1446.92 13.9075 1448.08 13.5256 1449.62 13.5256C1450.92 13.5256 1451.92 13.8922 1452.6 14.6255C1453.29 15.3435 1453.63 16.306 1453.63 17.5129V23.7001C1453.63 25.0445 1453.71 26.1445 1453.86 27H1450.52C1450.38 25.9764 1450.28 25.3501 1450.22 25.1209C1450.04 25.732 1449.73 26.2361 1449.3 26.6333C1448.88 27.0306 1448.33 27.2292 1447.68 27.2292ZM1449 24.7084C1449.39 24.7084 1449.74 24.4869 1450.06 24.0439V20.4232C1449.37 20.8204 1448.85 21.2405 1448.5 21.6836C1448.15 22.1113 1447.97 22.6384 1447.97 23.2647C1447.97 23.7078 1448.07 24.0592 1448.25 24.3189C1448.43 24.5786 1448.68 24.7084 1449 24.7084ZM1459.93 27.2292C1458.75 27.2292 1457.77 26.9694 1456.99 26.45C1456.23 25.9153 1455.61 25.0674 1455.14 23.9064L1457.68 22.7835C1457.92 23.3946 1458.21 23.8682 1458.53 24.2043C1458.86 24.5404 1459.23 24.7084 1459.63 24.7084C1460.21 24.7084 1460.5 24.4793 1460.5 24.021C1460.5 23.6849 1460.38 23.387 1460.16 23.1272C1459.93 22.8523 1459.43 22.4016 1458.67 21.7752L1457.7 20.9732C1456.91 20.301 1456.33 19.6899 1455.96 19.1399C1455.61 18.5899 1455.43 17.933 1455.43 17.1692C1455.43 16.4664 1455.62 15.8401 1455.98 15.2901C1456.37 14.7401 1456.87 14.3123 1457.5 14.0068C1458.12 13.686 1458.8 13.5256 1459.51 13.5256C1460.6 13.5256 1461.5 13.8235 1462.22 14.4193C1462.95 14.9998 1463.47 15.8401 1463.78 16.94L1461.37 18.04C1461.22 17.5511 1460.98 17.1157 1460.66 16.7338C1460.34 16.3366 1459.99 16.138 1459.61 16.138C1459.36 16.138 1459.16 16.2067 1459.01 16.3442C1458.87 16.4817 1458.8 16.665 1458.8 16.8942C1458.8 17.1692 1458.95 17.4671 1459.24 17.7879C1459.54 18.1087 1460.02 18.5288 1460.66 19.0483L1461.6 19.8732C1462.36 20.5149 1462.95 21.1183 1463.36 21.6836C1463.78 22.2335 1463.98 22.8828 1463.98 23.6314C1463.98 24.38 1463.79 25.0292 1463.41 25.5792C1463.04 26.1139 1462.55 26.5264 1461.92 26.8167C1461.31 27.0917 1460.64 27.2292 1459.93 27.2292ZM1469.64 27.2292C1468.46 27.2292 1467.48 26.9694 1466.71 26.45C1465.94 25.9153 1465.32 25.0674 1464.85 23.9064L1467.39 22.7835C1467.64 23.3946 1467.92 23.8682 1468.24 24.2043C1468.58 24.5404 1468.94 24.7084 1469.34 24.7084C1469.92 24.7084 1470.21 24.4793 1470.21 24.021C1470.21 23.6849 1470.1 23.387 1469.87 23.1272C1469.64 22.8523 1469.14 22.4016 1468.38 21.7752L1467.42 20.9732C1466.62 20.301 1466.04 19.6899 1465.67 19.1399C1465.32 18.5899 1465.15 17.933 1465.15 17.1692C1465.15 16.4664 1465.33 15.8401 1465.7 15.2901C1466.08 14.7401 1466.58 14.3123 1467.21 14.0068C1467.84 13.686 1468.51 13.5256 1469.23 13.5256C1470.31 13.5256 1471.21 13.8235 1471.93 14.4193C1472.66 14.9998 1473.18 15.8401 1473.49 16.94L1471.08 18.04C1470.93 17.5511 1470.69 17.1157 1470.37 16.7338C1470.05 16.3366 1469.7 16.138 1469.32 16.138C1469.07 16.138 1468.87 16.2067 1468.72 16.3442C1468.58 16.4817 1468.52 16.665 1468.52 16.8942C1468.52 17.1692 1468.66 17.4671 1468.95 17.7879C1469.26 18.1087 1469.73 18.5288 1470.37 19.0483L1471.31 19.8732C1472.08 20.5149 1472.66 21.1183 1473.08 21.6836C1473.49 22.2335 1473.69 22.8828 1473.69 23.6314C1473.69 24.38 1473.5 25.0292 1473.12 25.5792C1472.76 26.1139 1472.26 26.5264 1471.63 26.8167C1471.02 27.0917 1470.36 27.2292 1469.64 27.2292Z" fill="#4478C0"/>
</g>
<circle cx="1344.44" cy="16.8523" r="5.08606" stroke="#4478C0" stroke-width="1.72184"/>
<circle cx="1344.44" cy="16.8523" r="5.08606" stroke="#4478C0" stroke-width="1.72184"/>
<defs>
<filter id="filter0_i_213_93" x="63.6816" y="9.47266" width="101.592" height="17.3879" filterUnits="userSpaceOnUse" color-interpolation-filters="sRGB">
<feFlood flood-opacity="0" result="BackgroundImageFix"/>
<feBlend mode="normal" in="SourceGraphic" in2="BackgroundImageFix" result="shape"/>
<feColorMatrix in="SourceAlpha" type="matrix" values="0 0 0 0 0 0 0 0 0 0 0 0 0 0 0 0 0 0 127 0" result="hardAlpha"/>
<feOffset dy="0.592983"/>
<feGaussianBlur stdDeviation="1.18597"/>
<feComposite in2="hardAlpha" operator="arithmetic" k2="-1" k3="1"/>
<feColorMatrix type="matrix" values="0 0 0 0 0 0 0 0 0 0 0 0 0 0 0 0 0 0 0.25 0"/>
<feBlend mode="normal" in2="shape" result="effect1_innerShadow_213_93"/>
</filter>
<filter id="filter1_i_213_93" x="200.431" y="9.30176" width="157.847" height="20.6441" filterUnits="userSpaceOnUse" color-interpolation-filters="sRGB">
<feFlood flood-opacity="0" result="BackgroundImageFix"/>
<feBlend mode="normal" in="SourceGraphic" in2="BackgroundImageFix" result="shape"/>
<feColorMatrix in="SourceAlpha" type="matrix" values="0 0 0 0 0 0 0 0 0 0 0 0 0 0 0 0 0 0 127 0" result="hardAlpha"/>
<feOffset dy="0.596223"/>
<feGaussianBlur stdDeviation="1.19245"/>
<feComposite in2="hardAlpha" operator="arithmetic" k2="-1" k3="1"/>
<feColorMatrix type="matrix" values="0 0 0 0 0 0 0 0 0 0 0 0 0 0 0 0 0 0 0.25 0"/>
<feBlend mode="normal" in2="shape" result="effect1_innerShadow_213_93"/>
</filter>
<filter id="filter2_i_213_93" x="399.244" y="9.50879" width="75.1765" height="20.4315" filterUnits="userSpaceOnUse" color-interpolation-filters="sRGB">
<feFlood flood-opacity="0" result="BackgroundImageFix"/>
<feBlend mode="normal" in="SourceGraphic" in2="BackgroundImageFix" result="shape"/>
<feColorMatrix in="SourceAlpha" type="matrix" values="0 0 0 0 0 0 0 0 0 0 0 0 0 0 0 0 0 0 127 0" result="hardAlpha"/>
<feOffset dy="0.596521"/>
<feGaussianBlur stdDeviation="1.19304"/>
<feComposite in2="hardAlpha" operator="arithmetic" k2="-1" k3="1"/>
<feColorMatrix type="matrix" values="0 0 0 0 0 0 0 0 0 0 0 0 0 0 0 0 0 0 0.25 0"/>
<feBlend mode="normal" in2="shape" result="effect1_innerShadow_213_93"/>
</filter>
<filter id="filter3_i_213_93" x="515.689" y="9.69238" width="169.918" height="21.7044" filterUnits="userSpaceOnUse" color-interpolation-filters="sRGB">
<feFlood flood-opacity="0" result="BackgroundImageFix"/>
<feBlend mode="normal" in="SourceGraphic" in2="BackgroundImageFix" result="shape"/>
<feColorMatrix in="SourceAlpha" type="matrix" values="0 0 0 0 0 0 0 0 0 0 0 0 0 0 0 0 0 0 127 0" result="hardAlpha"/>
<feOffset dy="0.607734"/>
<feGaussianBlur stdDeviation="1.21547"/>
<feComposite in2="hardAlpha" operator="arithmetic" k2="-1" k3="1"/>
<feColorMatrix type="matrix" values="0 0 0 0 0 0 0 0 0 0 0 0 0 0 0 0 0 0 0.25 0"/>
<feBlend mode="normal" in2="shape" result="effect1_innerShadow_213_93"/>
</filter>
<filter id="filter4_i_213_93" x="722.929" y="9.16113" width="175.788" height="21.3879" filterUnits="userSpaceOnUse" color-interpolation-filters="sRGB">
<feFlood flood-opacity="0" result="BackgroundImageFix"/>
<feBlend mode="normal" in="SourceGraphic" in2="BackgroundImageFix" result="shape"/>
<feColorMatrix in="SourceAlpha" type="matrix" values="0 0 0 0 0 0 0 0 0 0 0 0 0 0 0 0 0 0 127 0" result="hardAlpha"/>
<feOffset dy="0.598858"/>
<feGaussianBlur stdDeviation="1.19772"/>
<feComposite in2="hardAlpha" operator="arithmetic" k2="-1" k3="1"/>
<feColorMatrix type="matrix" values="0 0 0 0 0 0 0 0 0 0 0 0 0 0 0 0 0 0 0.25 0"/>
<feBlend mode="normal" in2="shape" result="effect1_innerShadow_213_93"/>
</filter>
<filter id="filter5_i_213_93" x="941.486" y="9.83398" width="155.457" height="21.5351" filterUnits="userSpaceOnUse" color-interpolation-filters="sRGB">
<feFlood flood-opacity="0" result="BackgroundImageFix"/>
<feBlend mode="normal" in="SourceGraphic" in2="BackgroundImageFix" result="shape"/>
<feColorMatrix in="SourceAlpha" type="matrix" values="0 0 0 0 0 0 0 0 0 0 0 0 0 0 0 0 0 0 127 0" result="hardAlpha"/>
<feOffset dy="0.609362"/>
<feGaussianBlur stdDeviation="1.21872"/>
<feComposite in2="hardAlpha" operator="arithmetic" k2="-1" k3="1"/>
<feColorMatrix type="matrix" values="0 0 0 0 0 0 0 0 0 0 0 0 0 0 0 0 0 0 0.25 0"/>
<feBlend mode="normal" in2="shape" result="effect1_innerShadow_213_93"/>
</filter>
<filter id="filter6_i_213_93" x="1133.56" y="9.69531" width="182.676" height="21.6286" filterUnits="userSpaceOnUse" color-interpolation-filters="sRGB">
<feFlood flood-opacity="0" result="BackgroundImageFix"/>
<feBlend mode="normal" in="SourceGraphic" in2="BackgroundImageFix" result="shape"/>
<feColorMatrix in="SourceAlpha" type="matrix" values="0 0 0 0 0 0 0 0 0 0 0 0 0 0 0 0 0 0 127 0" result="hardAlpha"/>
<feOffset dy="0.612015"/>
<feGaussianBlur stdDeviation="1.22403"/>
<feComposite in2="hardAlpha" operator="arithmetic" k2="-1" k3="1"/>
<feColorMatrix type="matrix" values="0 0 0 0 0 0 0 0 0 0 0 0 0 0 0 0 0 0 0.25 0"/>
<feBlend mode="normal" in2="shape" result="effect1_innerShadow_213_93"/>
</filter>
<filter id="filter7_i_213_93" x="1360.07" y="8.18652" width="113.629" height="19.7629" filterUnits="userSpaceOnUse" color-interpolation-filters="sRGB">
<feFlood flood-opacity="0" result="BackgroundImageFix"/>
<feBlend mode="normal" in="SourceGraphic" in2="BackgroundImageFix" result="shape"/>
<feColorMatrix in="SourceAlpha" type="matrix" values="0 0 0 0 0 0 0 0 0 0 0 0 0 0 0 0 0 0 127 0" result="hardAlpha"/>
<feOffset dy="0.673991"/>
<feGaussianBlur stdDeviation="1.34798"/>
<feComposite in2="hardAlpha" operator="arithmetic" k2="-1" k3="1"/>
<feColorMatrix type="matrix" values="0 0 0 0 0 0 0 0 0 0 0 0 0 0 0 0 0 0 0.25 0"/>
<feBlend mode="normal" in2="shape" result="effect1_innerShadow_213_93"/>
</filter>
</defs>
</svg>
